<mxfile host="app.diagrams.net" modified="2020-09-17T06:45:00.189Z" agent="5.0 (Windows NT 6.1; WOW64) AppleWebKit/537.36 (KHTML, like Gecko) Chrome/85.0.4183.102 Safari/537.36" etag="xXJOzUsnECs3xuqfhRWS" version="13.7.1" type="github">
  <diagram id="EIDxDhtgvsLukZoEBWEP" name="第 1 页">
    <mxGraphModel dx="2169" dy="592" grid="1" gridSize="10" guides="1" tooltips="1" connect="1" arrows="1" fold="1" page="1" pageScale="1" pageWidth="827" pageHeight="1169" math="0" shadow="0">
      <root>
        <mxCell id="0" />
        <mxCell id="1" parent="0" />
        <mxCell id="D8TExDitwnJTRp-4ELaG-216" style="edgeStyle=orthogonalEdgeStyle;rounded=0;orthogonalLoop=1;jettySize=auto;html=1;exitX=1;exitY=0.5;exitDx=0;exitDy=0;entryX=0;entryY=0.5;entryDx=0;entryDy=0;" edge="1" parent="1" source="D8TExDitwnJTRp-4ELaG-125" target="D8TExDitwnJTRp-4ELaG-37">
          <mxGeometry relative="1" as="geometry" />
        </mxCell>
        <mxCell id="D8TExDitwnJTRp-4ELaG-124" value="CS_CUST_INFO" style="shape=table;startSize=30;container=1;collapsible=1;childLayout=tableLayout;fixedRows=1;rowLines=0;fontStyle=1;align=center;resizeLast=1;" vertex="1" parent="1">
          <mxGeometry x="30" y="60" width="190" height="150" as="geometry" />
        </mxCell>
        <mxCell id="D8TExDitwnJTRp-4ELaG-125" value="" style="shape=partialRectangle;collapsible=0;dropTarget=0;pointerEvents=0;fillColor=none;top=0;left=0;bottom=1;right=0;points=[[0,0.5],[1,0.5]];portConstraint=eastwest;" vertex="1" parent="D8TExDitwnJTRp-4ELaG-124">
          <mxGeometry y="30" width="190" height="30" as="geometry" />
        </mxCell>
        <mxCell id="D8TExDitwnJTRp-4ELaG-126" value="PK" style="shape=partialRectangle;connectable=0;fillColor=none;top=0;left=0;bottom=0;right=0;fontStyle=1;overflow=hidden;" vertex="1" parent="D8TExDitwnJTRp-4ELaG-125">
          <mxGeometry width="30" height="30" as="geometry" />
        </mxCell>
        <mxCell id="D8TExDitwnJTRp-4ELaG-127" value="CUST_ID" style="shape=partialRectangle;connectable=0;fillColor=none;top=0;left=0;bottom=0;right=0;align=left;spacingLeft=6;fontStyle=5;overflow=hidden;" vertex="1" parent="D8TExDitwnJTRp-4ELaG-125">
          <mxGeometry x="30" width="160" height="30" as="geometry" />
        </mxCell>
        <mxCell id="D8TExDitwnJTRp-4ELaG-128" value="" style="shape=partialRectangle;collapsible=0;dropTarget=0;pointerEvents=0;fillColor=none;top=0;left=0;bottom=0;right=0;points=[[0,0.5],[1,0.5]];portConstraint=eastwest;" vertex="1" parent="D8TExDitwnJTRp-4ELaG-124">
          <mxGeometry y="60" width="190" height="30" as="geometry" />
        </mxCell>
        <mxCell id="D8TExDitwnJTRp-4ELaG-129" value="" style="shape=partialRectangle;connectable=0;fillColor=none;top=0;left=0;bottom=0;right=0;editable=1;overflow=hidden;" vertex="1" parent="D8TExDitwnJTRp-4ELaG-128">
          <mxGeometry width="30" height="30" as="geometry" />
        </mxCell>
        <mxCell id="D8TExDitwnJTRp-4ELaG-130" value="CUST_NO" style="shape=partialRectangle;connectable=0;fillColor=none;top=0;left=0;bottom=0;right=0;align=left;spacingLeft=6;overflow=hidden;" vertex="1" parent="D8TExDitwnJTRp-4ELaG-128">
          <mxGeometry x="30" width="160" height="30" as="geometry" />
        </mxCell>
        <mxCell id="D8TExDitwnJTRp-4ELaG-131" value="" style="shape=partialRectangle;collapsible=0;dropTarget=0;pointerEvents=0;fillColor=none;top=0;left=0;bottom=0;right=0;points=[[0,0.5],[1,0.5]];portConstraint=eastwest;" vertex="1" parent="D8TExDitwnJTRp-4ELaG-124">
          <mxGeometry y="90" width="190" height="30" as="geometry" />
        </mxCell>
        <mxCell id="D8TExDitwnJTRp-4ELaG-132" value="" style="shape=partialRectangle;connectable=0;fillColor=none;top=0;left=0;bottom=0;right=0;editable=1;overflow=hidden;" vertex="1" parent="D8TExDitwnJTRp-4ELaG-131">
          <mxGeometry width="30" height="30" as="geometry" />
        </mxCell>
        <mxCell id="D8TExDitwnJTRp-4ELaG-133" value="CUST_NAME" style="shape=partialRectangle;connectable=0;fillColor=none;top=0;left=0;bottom=0;right=0;align=left;spacingLeft=6;overflow=hidden;" vertex="1" parent="D8TExDitwnJTRp-4ELaG-131">
          <mxGeometry x="30" width="160" height="30" as="geometry" />
        </mxCell>
        <mxCell id="D8TExDitwnJTRp-4ELaG-134" value="" style="shape=partialRectangle;collapsible=0;dropTarget=0;pointerEvents=0;fillColor=none;top=0;left=0;bottom=0;right=0;points=[[0,0.5],[1,0.5]];portConstraint=eastwest;" vertex="1" parent="D8TExDitwnJTRp-4ELaG-124">
          <mxGeometry y="120" width="190" height="30" as="geometry" />
        </mxCell>
        <mxCell id="D8TExDitwnJTRp-4ELaG-135" value="" style="shape=partialRectangle;connectable=0;fillColor=none;top=0;left=0;bottom=0;right=0;editable=1;overflow=hidden;" vertex="1" parent="D8TExDitwnJTRp-4ELaG-134">
          <mxGeometry width="30" height="30" as="geometry" />
        </mxCell>
        <mxCell id="D8TExDitwnJTRp-4ELaG-136" value="" style="shape=partialRectangle;connectable=0;fillColor=none;top=0;left=0;bottom=0;right=0;align=left;spacingLeft=6;overflow=hidden;" vertex="1" parent="D8TExDitwnJTRp-4ELaG-134">
          <mxGeometry x="30" width="160" height="30" as="geometry" />
        </mxCell>
        <mxCell id="D8TExDitwnJTRp-4ELaG-27" value="CS_BUSI_CUST" style="shape=table;startSize=30;container=1;collapsible=1;childLayout=tableLayout;fixedRows=1;rowLines=0;fontStyle=1;align=center;resizeLast=1;" vertex="1" parent="1">
          <mxGeometry x="280" y="60" width="190" height="150" as="geometry" />
        </mxCell>
        <mxCell id="D8TExDitwnJTRp-4ELaG-28" value="" style="shape=partialRectangle;collapsible=0;dropTarget=0;pointerEvents=0;fillColor=none;top=0;left=0;bottom=1;right=0;points=[[0,0.5],[1,0.5]];portConstraint=eastwest;" vertex="1" parent="D8TExDitwnJTRp-4ELaG-27">
          <mxGeometry y="30" width="190" height="30" as="geometry" />
        </mxCell>
        <mxCell id="D8TExDitwnJTRp-4ELaG-29" value="PK" style="shape=partialRectangle;connectable=0;fillColor=none;top=0;left=0;bottom=0;right=0;fontStyle=1;overflow=hidden;" vertex="1" parent="D8TExDitwnJTRp-4ELaG-28">
          <mxGeometry width="30" height="30" as="geometry" />
        </mxCell>
        <mxCell id="D8TExDitwnJTRp-4ELaG-30" value="BUSI_CUST_ID" style="shape=partialRectangle;connectable=0;fillColor=none;top=0;left=0;bottom=0;right=0;align=left;spacingLeft=6;fontStyle=5;overflow=hidden;" vertex="1" parent="D8TExDitwnJTRp-4ELaG-28">
          <mxGeometry x="30" width="160" height="30" as="geometry" />
        </mxCell>
        <mxCell id="D8TExDitwnJTRp-4ELaG-31" value="" style="shape=partialRectangle;collapsible=0;dropTarget=0;pointerEvents=0;fillColor=none;top=0;left=0;bottom=0;right=0;points=[[0,0.5],[1,0.5]];portConstraint=eastwest;" vertex="1" parent="D8TExDitwnJTRp-4ELaG-27">
          <mxGeometry y="60" width="190" height="30" as="geometry" />
        </mxCell>
        <mxCell id="D8TExDitwnJTRp-4ELaG-32" value="" style="shape=partialRectangle;connectable=0;fillColor=none;top=0;left=0;bottom=0;right=0;editable=1;overflow=hidden;" vertex="1" parent="D8TExDitwnJTRp-4ELaG-31">
          <mxGeometry width="30" height="30" as="geometry" />
        </mxCell>
        <mxCell id="D8TExDitwnJTRp-4ELaG-33" value="BUSI_CUST_NO" style="shape=partialRectangle;connectable=0;fillColor=none;top=0;left=0;bottom=0;right=0;align=left;spacingLeft=6;overflow=hidden;" vertex="1" parent="D8TExDitwnJTRp-4ELaG-31">
          <mxGeometry x="30" width="160" height="30" as="geometry" />
        </mxCell>
        <mxCell id="D8TExDitwnJTRp-4ELaG-34" value="" style="shape=partialRectangle;collapsible=0;dropTarget=0;pointerEvents=0;fillColor=none;top=0;left=0;bottom=0;right=0;points=[[0,0.5],[1,0.5]];portConstraint=eastwest;" vertex="1" parent="D8TExDitwnJTRp-4ELaG-27">
          <mxGeometry y="90" width="190" height="30" as="geometry" />
        </mxCell>
        <mxCell id="D8TExDitwnJTRp-4ELaG-35" value="" style="shape=partialRectangle;connectable=0;fillColor=none;top=0;left=0;bottom=0;right=0;editable=1;overflow=hidden;" vertex="1" parent="D8TExDitwnJTRp-4ELaG-34">
          <mxGeometry width="30" height="30" as="geometry" />
        </mxCell>
        <mxCell id="D8TExDitwnJTRp-4ELaG-36" value="BUSI_CUST_NAME" style="shape=partialRectangle;connectable=0;fillColor=none;top=0;left=0;bottom=0;right=0;align=left;spacingLeft=6;overflow=hidden;" vertex="1" parent="D8TExDitwnJTRp-4ELaG-34">
          <mxGeometry x="30" width="160" height="30" as="geometry" />
        </mxCell>
        <mxCell id="D8TExDitwnJTRp-4ELaG-37" value="" style="shape=partialRectangle;collapsible=0;dropTarget=0;pointerEvents=0;fillColor=none;top=0;left=0;bottom=0;right=0;points=[[0,0.5],[1,0.5]];portConstraint=eastwest;" vertex="1" parent="D8TExDitwnJTRp-4ELaG-27">
          <mxGeometry y="120" width="190" height="30" as="geometry" />
        </mxCell>
        <mxCell id="D8TExDitwnJTRp-4ELaG-38" value="" style="shape=partialRectangle;connectable=0;fillColor=none;top=0;left=0;bottom=0;right=0;editable=1;overflow=hidden;" vertex="1" parent="D8TExDitwnJTRp-4ELaG-37">
          <mxGeometry width="30" height="30" as="geometry" />
        </mxCell>
        <mxCell id="D8TExDitwnJTRp-4ELaG-39" value="CUST_ID" style="shape=partialRectangle;connectable=0;fillColor=none;top=0;left=0;bottom=0;right=0;align=left;spacingLeft=6;overflow=hidden;" vertex="1" parent="D8TExDitwnJTRp-4ELaG-37">
          <mxGeometry x="30" width="160" height="30" as="geometry" />
        </mxCell>
        <mxCell id="D8TExDitwnJTRp-4ELaG-137" value="BD_PROD_INFO" style="shape=table;startSize=30;container=1;collapsible=1;childLayout=tableLayout;fixedRows=1;rowLines=0;fontStyle=1;align=center;resizeLast=1;" vertex="1" parent="1">
          <mxGeometry x="550" y="60" width="190" height="150" as="geometry" />
        </mxCell>
        <mxCell id="D8TExDitwnJTRp-4ELaG-138" value="" style="shape=partialRectangle;collapsible=0;dropTarget=0;pointerEvents=0;fillColor=none;top=0;left=0;bottom=1;right=0;points=[[0,0.5],[1,0.5]];portConstraint=eastwest;" vertex="1" parent="D8TExDitwnJTRp-4ELaG-137">
          <mxGeometry y="30" width="190" height="30" as="geometry" />
        </mxCell>
        <mxCell id="D8TExDitwnJTRp-4ELaG-139" value="PK" style="shape=partialRectangle;connectable=0;fillColor=none;top=0;left=0;bottom=0;right=0;fontStyle=1;overflow=hidden;" vertex="1" parent="D8TExDitwnJTRp-4ELaG-138">
          <mxGeometry width="30" height="30" as="geometry" />
        </mxCell>
        <mxCell id="D8TExDitwnJTRp-4ELaG-140" value="PROD_ID" style="shape=partialRectangle;connectable=0;fillColor=none;top=0;left=0;bottom=0;right=0;align=left;spacingLeft=6;fontStyle=5;overflow=hidden;" vertex="1" parent="D8TExDitwnJTRp-4ELaG-138">
          <mxGeometry x="30" width="160" height="30" as="geometry" />
        </mxCell>
        <mxCell id="D8TExDitwnJTRp-4ELaG-141" value="" style="shape=partialRectangle;collapsible=0;dropTarget=0;pointerEvents=0;fillColor=none;top=0;left=0;bottom=0;right=0;points=[[0,0.5],[1,0.5]];portConstraint=eastwest;" vertex="1" parent="D8TExDitwnJTRp-4ELaG-137">
          <mxGeometry y="60" width="190" height="30" as="geometry" />
        </mxCell>
        <mxCell id="D8TExDitwnJTRp-4ELaG-142" value="" style="shape=partialRectangle;connectable=0;fillColor=none;top=0;left=0;bottom=0;right=0;editable=1;overflow=hidden;" vertex="1" parent="D8TExDitwnJTRp-4ELaG-141">
          <mxGeometry width="30" height="30" as="geometry" />
        </mxCell>
        <mxCell id="D8TExDitwnJTRp-4ELaG-143" value="PROD_NAME" style="shape=partialRectangle;connectable=0;fillColor=none;top=0;left=0;bottom=0;right=0;align=left;spacingLeft=6;overflow=hidden;" vertex="1" parent="D8TExDitwnJTRp-4ELaG-141">
          <mxGeometry x="30" width="160" height="30" as="geometry" />
        </mxCell>
        <mxCell id="D8TExDitwnJTRp-4ELaG-144" value="" style="shape=partialRectangle;collapsible=0;dropTarget=0;pointerEvents=0;fillColor=none;top=0;left=0;bottom=0;right=0;points=[[0,0.5],[1,0.5]];portConstraint=eastwest;" vertex="1" parent="D8TExDitwnJTRp-4ELaG-137">
          <mxGeometry y="90" width="190" height="30" as="geometry" />
        </mxCell>
        <mxCell id="D8TExDitwnJTRp-4ELaG-145" value="" style="shape=partialRectangle;connectable=0;fillColor=none;top=0;left=0;bottom=0;right=0;editable=1;overflow=hidden;" vertex="1" parent="D8TExDitwnJTRp-4ELaG-144">
          <mxGeometry width="30" height="30" as="geometry" />
        </mxCell>
        <mxCell id="D8TExDitwnJTRp-4ELaG-146" value="CHARGE_TYPE" style="shape=partialRectangle;connectable=0;fillColor=none;top=0;left=0;bottom=0;right=0;align=left;spacingLeft=6;overflow=hidden;" vertex="1" parent="D8TExDitwnJTRp-4ELaG-144">
          <mxGeometry x="30" width="160" height="30" as="geometry" />
        </mxCell>
        <mxCell id="D8TExDitwnJTRp-4ELaG-147" value="" style="shape=partialRectangle;collapsible=0;dropTarget=0;pointerEvents=0;fillColor=none;top=0;left=0;bottom=0;right=0;points=[[0,0.5],[1,0.5]];portConstraint=eastwest;" vertex="1" parent="D8TExDitwnJTRp-4ELaG-137">
          <mxGeometry y="120" width="190" height="30" as="geometry" />
        </mxCell>
        <mxCell id="D8TExDitwnJTRp-4ELaG-148" value="" style="shape=partialRectangle;connectable=0;fillColor=none;top=0;left=0;bottom=0;right=0;editable=1;overflow=hidden;" vertex="1" parent="D8TExDitwnJTRp-4ELaG-147">
          <mxGeometry width="30" height="30" as="geometry" />
        </mxCell>
        <mxCell id="D8TExDitwnJTRp-4ELaG-149" value="" style="shape=partialRectangle;connectable=0;fillColor=none;top=0;left=0;bottom=0;right=0;align=left;spacingLeft=6;overflow=hidden;" vertex="1" parent="D8TExDitwnJTRp-4ELaG-147">
          <mxGeometry x="30" width="160" height="30" as="geometry" />
        </mxCell>
        <mxCell id="D8TExDitwnJTRp-4ELaG-163" value="BD_PROD_SCHEME" style="shape=table;startSize=30;container=1;collapsible=1;childLayout=tableLayout;fixedRows=1;rowLines=0;fontStyle=1;align=center;resizeLast=1;" vertex="1" parent="1">
          <mxGeometry x="840" y="70" width="190" height="150" as="geometry" />
        </mxCell>
        <mxCell id="D8TExDitwnJTRp-4ELaG-164" value="" style="shape=partialRectangle;collapsible=0;dropTarget=0;pointerEvents=0;fillColor=none;top=0;left=0;bottom=1;right=0;points=[[0,0.5],[1,0.5]];portConstraint=eastwest;" vertex="1" parent="D8TExDitwnJTRp-4ELaG-163">
          <mxGeometry y="30" width="190" height="30" as="geometry" />
        </mxCell>
        <mxCell id="D8TExDitwnJTRp-4ELaG-165" value="PK" style="shape=partialRectangle;connectable=0;fillColor=none;top=0;left=0;bottom=0;right=0;fontStyle=1;overflow=hidden;" vertex="1" parent="D8TExDitwnJTRp-4ELaG-164">
          <mxGeometry width="30" height="30" as="geometry" />
        </mxCell>
        <mxCell id="D8TExDitwnJTRp-4ELaG-166" value="PROD_SCHE_ID" style="shape=partialRectangle;connectable=0;fillColor=none;top=0;left=0;bottom=0;right=0;align=left;spacingLeft=6;fontStyle=5;overflow=hidden;" vertex="1" parent="D8TExDitwnJTRp-4ELaG-164">
          <mxGeometry x="30" width="160" height="30" as="geometry" />
        </mxCell>
        <mxCell id="D8TExDitwnJTRp-4ELaG-167" value="" style="shape=partialRectangle;collapsible=0;dropTarget=0;pointerEvents=0;fillColor=none;top=0;left=0;bottom=0;right=0;points=[[0,0.5],[1,0.5]];portConstraint=eastwest;" vertex="1" parent="D8TExDitwnJTRp-4ELaG-163">
          <mxGeometry y="60" width="190" height="30" as="geometry" />
        </mxCell>
        <mxCell id="D8TExDitwnJTRp-4ELaG-168" value="" style="shape=partialRectangle;connectable=0;fillColor=none;top=0;left=0;bottom=0;right=0;editable=1;overflow=hidden;" vertex="1" parent="D8TExDitwnJTRp-4ELaG-167">
          <mxGeometry width="30" height="30" as="geometry" />
        </mxCell>
        <mxCell id="D8TExDitwnJTRp-4ELaG-169" value="SCHE_NAME" style="shape=partialRectangle;connectable=0;fillColor=none;top=0;left=0;bottom=0;right=0;align=left;spacingLeft=6;overflow=hidden;" vertex="1" parent="D8TExDitwnJTRp-4ELaG-167">
          <mxGeometry x="30" width="160" height="30" as="geometry" />
        </mxCell>
        <mxCell id="D8TExDitwnJTRp-4ELaG-170" value="" style="shape=partialRectangle;collapsible=0;dropTarget=0;pointerEvents=0;fillColor=none;top=0;left=0;bottom=0;right=0;points=[[0,0.5],[1,0.5]];portConstraint=eastwest;" vertex="1" parent="D8TExDitwnJTRp-4ELaG-163">
          <mxGeometry y="90" width="190" height="30" as="geometry" />
        </mxCell>
        <mxCell id="D8TExDitwnJTRp-4ELaG-171" value="" style="shape=partialRectangle;connectable=0;fillColor=none;top=0;left=0;bottom=0;right=0;editable=1;overflow=hidden;" vertex="1" parent="D8TExDitwnJTRp-4ELaG-170">
          <mxGeometry width="30" height="30" as="geometry" />
        </mxCell>
        <mxCell id="D8TExDitwnJTRp-4ELaG-172" value="PROD_ID" style="shape=partialRectangle;connectable=0;fillColor=none;top=0;left=0;bottom=0;right=0;align=left;spacingLeft=6;overflow=hidden;" vertex="1" parent="D8TExDitwnJTRp-4ELaG-170">
          <mxGeometry x="30" width="160" height="30" as="geometry" />
        </mxCell>
        <mxCell id="D8TExDitwnJTRp-4ELaG-173" value="" style="shape=partialRectangle;collapsible=0;dropTarget=0;pointerEvents=0;fillColor=none;top=0;left=0;bottom=0;right=0;points=[[0,0.5],[1,0.5]];portConstraint=eastwest;" vertex="1" parent="D8TExDitwnJTRp-4ELaG-163">
          <mxGeometry y="120" width="190" height="30" as="geometry" />
        </mxCell>
        <mxCell id="D8TExDitwnJTRp-4ELaG-174" value="" style="shape=partialRectangle;connectable=0;fillColor=none;top=0;left=0;bottom=0;right=0;editable=1;overflow=hidden;" vertex="1" parent="D8TExDitwnJTRp-4ELaG-173">
          <mxGeometry width="30" height="30" as="geometry" />
        </mxCell>
        <mxCell id="D8TExDitwnJTRp-4ELaG-175" value="" style="shape=partialRectangle;connectable=0;fillColor=none;top=0;left=0;bottom=0;right=0;align=left;spacingLeft=6;overflow=hidden;" vertex="1" parent="D8TExDitwnJTRp-4ELaG-173">
          <mxGeometry x="30" width="160" height="30" as="geometry" />
        </mxCell>
        <mxCell id="D8TExDitwnJTRp-4ELaG-150" value="BD_PROD_PRICE" style="shape=table;startSize=30;container=1;collapsible=1;childLayout=tableLayout;fixedRows=1;rowLines=0;fontStyle=1;align=center;resizeLast=1;" vertex="1" parent="1">
          <mxGeometry x="1130" y="60" width="190" height="180" as="geometry" />
        </mxCell>
        <mxCell id="D8TExDitwnJTRp-4ELaG-151" value="" style="shape=partialRectangle;collapsible=0;dropTarget=0;pointerEvents=0;fillColor=none;top=0;left=0;bottom=1;right=0;points=[[0,0.5],[1,0.5]];portConstraint=eastwest;" vertex="1" parent="D8TExDitwnJTRp-4ELaG-150">
          <mxGeometry y="30" width="190" height="30" as="geometry" />
        </mxCell>
        <mxCell id="D8TExDitwnJTRp-4ELaG-152" value="PK" style="shape=partialRectangle;connectable=0;fillColor=none;top=0;left=0;bottom=0;right=0;fontStyle=1;overflow=hidden;" vertex="1" parent="D8TExDitwnJTRp-4ELaG-151">
          <mxGeometry width="30" height="30" as="geometry" />
        </mxCell>
        <mxCell id="D8TExDitwnJTRp-4ELaG-153" value="PRICE_ID" style="shape=partialRectangle;connectable=0;fillColor=none;top=0;left=0;bottom=0;right=0;align=left;spacingLeft=6;fontStyle=5;overflow=hidden;" vertex="1" parent="D8TExDitwnJTRp-4ELaG-151">
          <mxGeometry x="30" width="160" height="30" as="geometry" />
        </mxCell>
        <mxCell id="D8TExDitwnJTRp-4ELaG-154" value="" style="shape=partialRectangle;collapsible=0;dropTarget=0;pointerEvents=0;fillColor=none;top=0;left=0;bottom=0;right=0;points=[[0,0.5],[1,0.5]];portConstraint=eastwest;" vertex="1" parent="D8TExDitwnJTRp-4ELaG-150">
          <mxGeometry y="60" width="190" height="30" as="geometry" />
        </mxCell>
        <mxCell id="D8TExDitwnJTRp-4ELaG-155" value="" style="shape=partialRectangle;connectable=0;fillColor=none;top=0;left=0;bottom=0;right=0;editable=1;overflow=hidden;" vertex="1" parent="D8TExDitwnJTRp-4ELaG-154">
          <mxGeometry width="30" height="30" as="geometry" />
        </mxCell>
        <mxCell id="D8TExDitwnJTRp-4ELaG-156" value="PROD_ID" style="shape=partialRectangle;connectable=0;fillColor=none;top=0;left=0;bottom=0;right=0;align=left;spacingLeft=6;overflow=hidden;" vertex="1" parent="D8TExDitwnJTRp-4ELaG-154">
          <mxGeometry x="30" width="160" height="30" as="geometry" />
        </mxCell>
        <mxCell id="D8TExDitwnJTRp-4ELaG-157" value="" style="shape=partialRectangle;collapsible=0;dropTarget=0;pointerEvents=0;fillColor=none;top=0;left=0;bottom=0;right=0;points=[[0,0.5],[1,0.5]];portConstraint=eastwest;" vertex="1" parent="D8TExDitwnJTRp-4ELaG-150">
          <mxGeometry y="90" width="190" height="30" as="geometry" />
        </mxCell>
        <mxCell id="D8TExDitwnJTRp-4ELaG-158" value="" style="shape=partialRectangle;connectable=0;fillColor=none;top=0;left=0;bottom=0;right=0;editable=1;overflow=hidden;" vertex="1" parent="D8TExDitwnJTRp-4ELaG-157">
          <mxGeometry width="30" height="30" as="geometry" />
        </mxCell>
        <mxCell id="D8TExDitwnJTRp-4ELaG-159" value="PROD_SCHE_ID" style="shape=partialRectangle;connectable=0;fillColor=none;top=0;left=0;bottom=0;right=0;align=left;spacingLeft=6;overflow=hidden;" vertex="1" parent="D8TExDitwnJTRp-4ELaG-157">
          <mxGeometry x="30" width="160" height="30" as="geometry" />
        </mxCell>
        <mxCell id="D8TExDitwnJTRp-4ELaG-160" value="" style="shape=partialRectangle;collapsible=0;dropTarget=0;pointerEvents=0;fillColor=none;top=0;left=0;bottom=0;right=0;points=[[0,0.5],[1,0.5]];portConstraint=eastwest;" vertex="1" parent="D8TExDitwnJTRp-4ELaG-150">
          <mxGeometry y="120" width="190" height="30" as="geometry" />
        </mxCell>
        <mxCell id="D8TExDitwnJTRp-4ELaG-161" value="" style="shape=partialRectangle;connectable=0;fillColor=none;top=0;left=0;bottom=0;right=0;editable=1;overflow=hidden;" vertex="1" parent="D8TExDitwnJTRp-4ELaG-160">
          <mxGeometry width="30" height="30" as="geometry" />
        </mxCell>
        <mxCell id="D8TExDitwnJTRp-4ELaG-162" value="PRICE_NAME" style="shape=partialRectangle;connectable=0;fillColor=none;top=0;left=0;bottom=0;right=0;align=left;spacingLeft=6;overflow=hidden;" vertex="1" parent="D8TExDitwnJTRp-4ELaG-160">
          <mxGeometry x="30" width="160" height="30" as="geometry" />
        </mxCell>
        <mxCell id="D8TExDitwnJTRp-4ELaG-218" style="shape=partialRectangle;collapsible=0;dropTarget=0;pointerEvents=0;fillColor=none;top=0;left=0;bottom=0;right=0;points=[[0,0.5],[1,0.5]];portConstraint=eastwest;" vertex="1" parent="D8TExDitwnJTRp-4ELaG-150">
          <mxGeometry y="150" width="190" height="30" as="geometry" />
        </mxCell>
        <mxCell id="D8TExDitwnJTRp-4ELaG-219" style="shape=partialRectangle;connectable=0;fillColor=none;top=0;left=0;bottom=0;right=0;editable=1;overflow=hidden;" vertex="1" parent="D8TExDitwnJTRp-4ELaG-218">
          <mxGeometry width="30" height="30" as="geometry" />
        </mxCell>
        <mxCell id="D8TExDitwnJTRp-4ELaG-220" style="shape=partialRectangle;connectable=0;fillColor=none;top=0;left=0;bottom=0;right=0;align=left;spacingLeft=6;overflow=hidden;" vertex="1" parent="D8TExDitwnJTRp-4ELaG-218">
          <mxGeometry x="30" width="160" height="30" as="geometry" />
        </mxCell>
        <mxCell id="D8TExDitwnJTRp-4ELaG-221" style="edgeStyle=orthogonalEdgeStyle;rounded=0;orthogonalLoop=1;jettySize=auto;html=1;exitX=1;exitY=0.5;exitDx=0;exitDy=0;entryX=0;entryY=0.5;entryDx=0;entryDy=0;" edge="1" parent="1" source="D8TExDitwnJTRp-4ELaG-164" target="D8TExDitwnJTRp-4ELaG-157">
          <mxGeometry relative="1" as="geometry">
            <Array as="points">
              <mxPoint x="1080" y="115" />
              <mxPoint x="1080" y="165" />
            </Array>
          </mxGeometry>
        </mxCell>
        <mxCell id="D8TExDitwnJTRp-4ELaG-223" style="edgeStyle=orthogonalEdgeStyle;rounded=0;orthogonalLoop=1;jettySize=auto;html=1;exitX=1;exitY=0.5;exitDx=0;exitDy=0;" edge="1" parent="1" source="D8TExDitwnJTRp-4ELaG-138" target="D8TExDitwnJTRp-4ELaG-170">
          <mxGeometry relative="1" as="geometry" />
        </mxCell>
        <mxCell id="D8TExDitwnJTRp-4ELaG-224" style="edgeStyle=orthogonalEdgeStyle;rounded=0;orthogonalLoop=1;jettySize=auto;html=1;exitX=1;exitY=0.5;exitDx=0;exitDy=0;entryX=0;entryY=0.5;entryDx=0;entryDy=0;" edge="1" parent="1" source="D8TExDitwnJTRp-4ELaG-138" target="D8TExDitwnJTRp-4ELaG-154">
          <mxGeometry relative="1" as="geometry">
            <Array as="points">
              <mxPoint x="790" y="105" />
              <mxPoint x="790" y="50" />
              <mxPoint x="1100" y="50" />
              <mxPoint x="1100" y="135" />
            </Array>
          </mxGeometry>
        </mxCell>
        <mxCell id="D8TExDitwnJTRp-4ELaG-226" style="edgeStyle=orthogonalEdgeStyle;rounded=0;orthogonalLoop=1;jettySize=auto;html=1;exitX=1;exitY=0.5;exitDx=0;exitDy=0;entryX=0;entryY=0.5;entryDx=0;entryDy=0;" edge="1" parent="1" source="D8TExDitwnJTRp-4ELaG-164" target="D8TExDitwnJTRp-4ELaG-55">
          <mxGeometry relative="1" as="geometry">
            <Array as="points">
              <mxPoint x="1080" y="115" />
              <mxPoint x="1080" y="615" />
            </Array>
          </mxGeometry>
        </mxCell>
        <mxCell id="D8TExDitwnJTRp-4ELaG-1" value="CS_NOT_DET" style="shape=table;startSize=30;container=1;collapsible=1;childLayout=tableLayout;fixedRows=1;rowLines=0;fontStyle=1;align=center;resizeLast=1;" vertex="1" parent="1">
          <mxGeometry x="1135" y="300" width="180" height="590" as="geometry" />
        </mxCell>
        <mxCell id="D8TExDitwnJTRp-4ELaG-2" value="" style="shape=partialRectangle;collapsible=0;dropTarget=0;pointerEvents=0;fillColor=none;top=0;left=0;bottom=1;right=0;points=[[0,0.5],[1,0.5]];portConstraint=eastwest;" vertex="1" parent="D8TExDitwnJTRp-4ELaG-1">
          <mxGeometry y="30" width="180" height="30" as="geometry" />
        </mxCell>
        <mxCell id="D8TExDitwnJTRp-4ELaG-3" value="PK" style="shape=partialRectangle;connectable=0;fillColor=none;top=0;left=0;bottom=0;right=0;fontStyle=1;overflow=hidden;" vertex="1" parent="D8TExDitwnJTRp-4ELaG-2">
          <mxGeometry width="30" height="30" as="geometry" />
        </mxCell>
        <mxCell id="D8TExDitwnJTRp-4ELaG-4" value="NOT_DET_ID" style="shape=partialRectangle;connectable=0;fillColor=none;top=0;left=0;bottom=0;right=0;align=left;spacingLeft=6;fontStyle=5;overflow=hidden;" vertex="1" parent="D8TExDitwnJTRp-4ELaG-2">
          <mxGeometry x="30" width="150" height="30" as="geometry" />
        </mxCell>
        <mxCell id="D8TExDitwnJTRp-4ELaG-61" style="shape=partialRectangle;collapsible=0;dropTarget=0;pointerEvents=0;fillColor=none;top=0;left=0;bottom=0;right=0;points=[[0,0.5],[1,0.5]];portConstraint=eastwest;" vertex="1" parent="D8TExDitwnJTRp-4ELaG-1">
          <mxGeometry y="60" width="180" height="30" as="geometry" />
        </mxCell>
        <mxCell id="D8TExDitwnJTRp-4ELaG-62" style="shape=partialRectangle;connectable=0;fillColor=none;top=0;left=0;bottom=0;right=0;editable=1;overflow=hidden;" vertex="1" parent="D8TExDitwnJTRp-4ELaG-61">
          <mxGeometry width="30" height="30" as="geometry" />
        </mxCell>
        <mxCell id="D8TExDitwnJTRp-4ELaG-63" value="CHA_NOT_ID" style="shape=partialRectangle;connectable=0;fillColor=none;top=0;left=0;bottom=0;right=0;align=left;spacingLeft=6;overflow=hidden;" vertex="1" parent="D8TExDitwnJTRp-4ELaG-61">
          <mxGeometry x="30" width="150" height="30" as="geometry" />
        </mxCell>
        <mxCell id="D8TExDitwnJTRp-4ELaG-5" value="" style="shape=partialRectangle;collapsible=0;dropTarget=0;pointerEvents=0;fillColor=none;top=0;left=0;bottom=0;right=0;points=[[0,0.5],[1,0.5]];portConstraint=eastwest;" vertex="1" parent="D8TExDitwnJTRp-4ELaG-1">
          <mxGeometry y="90" width="180" height="30" as="geometry" />
        </mxCell>
        <mxCell id="D8TExDitwnJTRp-4ELaG-6" value="" style="shape=partialRectangle;connectable=0;fillColor=none;top=0;left=0;bottom=0;right=0;editable=1;overflow=hidden;" vertex="1" parent="D8TExDitwnJTRp-4ELaG-5">
          <mxGeometry width="30" height="30" as="geometry" />
        </mxCell>
        <mxCell id="D8TExDitwnJTRp-4ELaG-7" value="EMP_NAME" style="shape=partialRectangle;connectable=0;fillColor=none;top=0;left=0;bottom=0;right=0;align=left;spacingLeft=6;overflow=hidden;" vertex="1" parent="D8TExDitwnJTRp-4ELaG-5">
          <mxGeometry x="30" width="150" height="30" as="geometry" />
        </mxCell>
        <mxCell id="D8TExDitwnJTRp-4ELaG-8" value="" style="shape=partialRectangle;collapsible=0;dropTarget=0;pointerEvents=0;fillColor=none;top=0;left=0;bottom=0;right=0;points=[[0,0.5],[1,0.5]];portConstraint=eastwest;" vertex="1" parent="D8TExDitwnJTRp-4ELaG-1">
          <mxGeometry y="120" width="180" height="30" as="geometry" />
        </mxCell>
        <mxCell id="D8TExDitwnJTRp-4ELaG-9" value="" style="shape=partialRectangle;connectable=0;fillColor=none;top=0;left=0;bottom=0;right=0;editable=1;overflow=hidden;" vertex="1" parent="D8TExDitwnJTRp-4ELaG-8">
          <mxGeometry width="30" height="30" as="geometry" />
        </mxCell>
        <mxCell id="D8TExDitwnJTRp-4ELaG-10" value="BUSI_CUST_ID" style="shape=partialRectangle;connectable=0;fillColor=none;top=0;left=0;bottom=0;right=0;align=left;spacingLeft=6;overflow=hidden;" vertex="1" parent="D8TExDitwnJTRp-4ELaG-8">
          <mxGeometry x="30" width="150" height="30" as="geometry" />
        </mxCell>
        <mxCell id="D8TExDitwnJTRp-4ELaG-11" value="" style="shape=partialRectangle;collapsible=0;dropTarget=0;pointerEvents=0;fillColor=none;top=0;left=0;bottom=0;right=0;points=[[0,0.5],[1,0.5]];portConstraint=eastwest;" vertex="1" parent="D8TExDitwnJTRp-4ELaG-1">
          <mxGeometry y="150" width="180" height="30" as="geometry" />
        </mxCell>
        <mxCell id="D8TExDitwnJTRp-4ELaG-12" value="" style="shape=partialRectangle;connectable=0;fillColor=none;top=0;left=0;bottom=0;right=0;editable=1;overflow=hidden;" vertex="1" parent="D8TExDitwnJTRp-4ELaG-11">
          <mxGeometry width="30" height="30" as="geometry" />
        </mxCell>
        <mxCell id="D8TExDitwnJTRp-4ELaG-13" value="BUSI_REP_ID" style="shape=partialRectangle;connectable=0;fillColor=none;top=0;left=0;bottom=0;right=0;align=left;spacingLeft=6;overflow=hidden;" vertex="1" parent="D8TExDitwnJTRp-4ELaG-11">
          <mxGeometry x="30" width="150" height="30" as="geometry" />
        </mxCell>
        <mxCell id="D8TExDitwnJTRp-4ELaG-70" style="shape=partialRectangle;collapsible=0;dropTarget=0;pointerEvents=0;fillColor=none;top=0;left=0;bottom=0;right=0;points=[[0,0.5],[1,0.5]];portConstraint=eastwest;" vertex="1" parent="D8TExDitwnJTRp-4ELaG-1">
          <mxGeometry y="180" width="180" height="30" as="geometry" />
        </mxCell>
        <mxCell id="D8TExDitwnJTRp-4ELaG-71" style="shape=partialRectangle;connectable=0;fillColor=none;top=0;left=0;bottom=0;right=0;editable=1;overflow=hidden;" vertex="1" parent="D8TExDitwnJTRp-4ELaG-70">
          <mxGeometry width="30" height="30" as="geometry" />
        </mxCell>
        <mxCell id="D8TExDitwnJTRp-4ELaG-72" value="LABOR_WAY" style="shape=partialRectangle;connectable=0;fillColor=none;top=0;left=0;bottom=0;right=0;align=left;spacingLeft=6;overflow=hidden;" vertex="1" parent="D8TExDitwnJTRp-4ELaG-70">
          <mxGeometry x="30" width="150" height="30" as="geometry" />
        </mxCell>
        <mxCell id="D8TExDitwnJTRp-4ELaG-67" style="shape=partialRectangle;collapsible=0;dropTarget=0;pointerEvents=0;fillColor=none;top=0;left=0;bottom=0;right=0;points=[[0,0.5],[1,0.5]];portConstraint=eastwest;" vertex="1" parent="D8TExDitwnJTRp-4ELaG-1">
          <mxGeometry y="210" width="180" height="30" as="geometry" />
        </mxCell>
        <mxCell id="D8TExDitwnJTRp-4ELaG-68" style="shape=partialRectangle;connectable=0;fillColor=none;top=0;left=0;bottom=0;right=0;editable=1;overflow=hidden;" vertex="1" parent="D8TExDitwnJTRp-4ELaG-67">
          <mxGeometry width="30" height="30" as="geometry" />
        </mxCell>
        <mxCell id="D8TExDitwnJTRp-4ELaG-69" value="BUSI_YM" style="shape=partialRectangle;connectable=0;fillColor=none;top=0;left=0;bottom=0;right=0;align=left;spacingLeft=6;overflow=hidden;" vertex="1" parent="D8TExDitwnJTRp-4ELaG-67">
          <mxGeometry x="30" width="150" height="30" as="geometry" />
        </mxCell>
        <mxCell id="D8TExDitwnJTRp-4ELaG-64" style="shape=partialRectangle;collapsible=0;dropTarget=0;pointerEvents=0;fillColor=none;top=0;left=0;bottom=0;right=0;points=[[0,0.5],[1,0.5]];portConstraint=eastwest;" vertex="1" parent="D8TExDitwnJTRp-4ELaG-1">
          <mxGeometry y="240" width="180" height="30" as="geometry" />
        </mxCell>
        <mxCell id="D8TExDitwnJTRp-4ELaG-65" style="shape=partialRectangle;connectable=0;fillColor=none;top=0;left=0;bottom=0;right=0;editable=1;overflow=hidden;" vertex="1" parent="D8TExDitwnJTRp-4ELaG-64">
          <mxGeometry width="30" height="30" as="geometry" />
        </mxCell>
        <mxCell id="D8TExDitwnJTRp-4ELaG-66" value="CRE_YM" style="shape=partialRectangle;connectable=0;fillColor=none;top=0;left=0;bottom=0;right=0;align=left;spacingLeft=6;overflow=hidden;" vertex="1" parent="D8TExDitwnJTRp-4ELaG-64">
          <mxGeometry x="30" width="150" height="30" as="geometry" />
        </mxCell>
        <mxCell id="D8TExDitwnJTRp-4ELaG-58" style="shape=partialRectangle;collapsible=0;dropTarget=0;pointerEvents=0;fillColor=none;top=0;left=0;bottom=0;right=0;points=[[0,0.5],[1,0.5]];portConstraint=eastwest;" vertex="1" parent="D8TExDitwnJTRp-4ELaG-1">
          <mxGeometry y="270" width="180" height="30" as="geometry" />
        </mxCell>
        <mxCell id="D8TExDitwnJTRp-4ELaG-59" style="shape=partialRectangle;connectable=0;fillColor=none;top=0;left=0;bottom=0;right=0;editable=1;overflow=hidden;" vertex="1" parent="D8TExDitwnJTRp-4ELaG-58">
          <mxGeometry width="30" height="30" as="geometry" />
        </mxCell>
        <mxCell id="D8TExDitwnJTRp-4ELaG-60" value="VALUE_" style="shape=partialRectangle;connectable=0;fillColor=none;top=0;left=0;bottom=0;right=0;align=left;spacingLeft=6;overflow=hidden;" vertex="1" parent="D8TExDitwnJTRp-4ELaG-58">
          <mxGeometry x="30" width="150" height="30" as="geometry" />
        </mxCell>
        <mxCell id="D8TExDitwnJTRp-4ELaG-55" style="shape=partialRectangle;collapsible=0;dropTarget=0;pointerEvents=0;fillColor=none;top=0;left=0;bottom=0;right=0;points=[[0,0.5],[1,0.5]];portConstraint=eastwest;" vertex="1" parent="D8TExDitwnJTRp-4ELaG-1">
          <mxGeometry y="300" width="180" height="30" as="geometry" />
        </mxCell>
        <mxCell id="D8TExDitwnJTRp-4ELaG-56" style="shape=partialRectangle;connectable=0;fillColor=none;top=0;left=0;bottom=0;right=0;editable=1;overflow=hidden;" vertex="1" parent="D8TExDitwnJTRp-4ELaG-55">
          <mxGeometry width="30" height="30" as="geometry" />
        </mxCell>
        <mxCell id="D8TExDitwnJTRp-4ELaG-57" value="PROD_PRICE_SCHM_ID" style="shape=partialRectangle;connectable=0;fillColor=none;top=0;left=0;bottom=0;right=0;align=left;spacingLeft=6;overflow=hidden;" vertex="1" parent="D8TExDitwnJTRp-4ELaG-55">
          <mxGeometry x="30" width="150" height="30" as="geometry" />
        </mxCell>
        <mxCell id="D8TExDitwnJTRp-4ELaG-52" style="shape=partialRectangle;collapsible=0;dropTarget=0;pointerEvents=0;fillColor=none;top=0;left=0;bottom=0;right=0;points=[[0,0.5],[1,0.5]];portConstraint=eastwest;" vertex="1" parent="D8TExDitwnJTRp-4ELaG-1">
          <mxGeometry y="330" width="180" height="30" as="geometry" />
        </mxCell>
        <mxCell id="D8TExDitwnJTRp-4ELaG-53" style="shape=partialRectangle;connectable=0;fillColor=none;top=0;left=0;bottom=0;right=0;editable=1;overflow=hidden;" vertex="1" parent="D8TExDitwnJTRp-4ELaG-52">
          <mxGeometry width="30" height="30" as="geometry" />
        </mxCell>
        <mxCell id="D8TExDitwnJTRp-4ELaG-54" value="INV_ITEM_ID" style="shape=partialRectangle;connectable=0;fillColor=none;top=0;left=0;bottom=0;right=0;align=left;spacingLeft=6;overflow=hidden;" vertex="1" parent="D8TExDitwnJTRp-4ELaG-52">
          <mxGeometry x="30" width="150" height="30" as="geometry" />
        </mxCell>
        <mxCell id="D8TExDitwnJTRp-4ELaG-49" style="shape=partialRectangle;collapsible=0;dropTarget=0;pointerEvents=0;fillColor=none;top=0;left=0;bottom=0;right=0;points=[[0,0.5],[1,0.5]];portConstraint=eastwest;" vertex="1" parent="D8TExDitwnJTRp-4ELaG-1">
          <mxGeometry y="360" width="180" height="30" as="geometry" />
        </mxCell>
        <mxCell id="D8TExDitwnJTRp-4ELaG-50" style="shape=partialRectangle;connectable=0;fillColor=none;top=0;left=0;bottom=0;right=0;editable=1;overflow=hidden;" vertex="1" parent="D8TExDitwnJTRp-4ELaG-49">
          <mxGeometry width="30" height="30" as="geometry" />
        </mxCell>
        <mxCell id="D8TExDitwnJTRp-4ELaG-51" value="OI_DET_CATE" style="shape=partialRectangle;connectable=0;fillColor=none;top=0;left=0;bottom=0;right=0;align=left;spacingLeft=6;overflow=hidden;" vertex="1" parent="D8TExDitwnJTRp-4ELaG-49">
          <mxGeometry x="30" width="150" height="30" as="geometry" />
        </mxCell>
        <mxCell id="D8TExDitwnJTRp-4ELaG-46" style="shape=partialRectangle;collapsible=0;dropTarget=0;pointerEvents=0;fillColor=none;top=0;left=0;bottom=0;right=0;points=[[0,0.5],[1,0.5]];portConstraint=eastwest;" vertex="1" parent="D8TExDitwnJTRp-4ELaG-1">
          <mxGeometry y="390" width="180" height="30" as="geometry" />
        </mxCell>
        <mxCell id="D8TExDitwnJTRp-4ELaG-47" style="shape=partialRectangle;connectable=0;fillColor=none;top=0;left=0;bottom=0;right=0;editable=1;overflow=hidden;" vertex="1" parent="D8TExDitwnJTRp-4ELaG-46">
          <mxGeometry width="30" height="30" as="geometry" />
        </mxCell>
        <mxCell id="D8TExDitwnJTRp-4ELaG-48" value="PROPERTY" style="shape=partialRectangle;connectable=0;fillColor=none;top=0;left=0;bottom=0;right=0;align=left;spacingLeft=6;overflow=hidden;" vertex="1" parent="D8TExDitwnJTRp-4ELaG-46">
          <mxGeometry x="30" width="150" height="30" as="geometry" />
        </mxCell>
        <mxCell id="D8TExDitwnJTRp-4ELaG-43" style="shape=partialRectangle;collapsible=0;dropTarget=0;pointerEvents=0;fillColor=none;top=0;left=0;bottom=0;right=0;points=[[0,0.5],[1,0.5]];portConstraint=eastwest;" vertex="1" parent="D8TExDitwnJTRp-4ELaG-1">
          <mxGeometry y="420" width="180" height="30" as="geometry" />
        </mxCell>
        <mxCell id="D8TExDitwnJTRp-4ELaG-44" style="shape=partialRectangle;connectable=0;fillColor=none;top=0;left=0;bottom=0;right=0;editable=1;overflow=hidden;" vertex="1" parent="D8TExDitwnJTRp-4ELaG-43">
          <mxGeometry width="30" height="30" as="geometry" />
        </mxCell>
        <mxCell id="D8TExDitwnJTRp-4ELaG-45" value="IS_PAY_TAG" style="shape=partialRectangle;connectable=0;fillColor=none;top=0;left=0;bottom=0;right=0;align=left;spacingLeft=6;overflow=hidden;" vertex="1" parent="D8TExDitwnJTRp-4ELaG-43">
          <mxGeometry x="30" width="150" height="30" as="geometry" />
        </mxCell>
        <mxCell id="D8TExDitwnJTRp-4ELaG-79" style="shape=partialRectangle;collapsible=0;dropTarget=0;pointerEvents=0;fillColor=none;top=0;left=0;bottom=0;right=0;points=[[0,0.5],[1,0.5]];portConstraint=eastwest;" vertex="1" parent="D8TExDitwnJTRp-4ELaG-1">
          <mxGeometry y="450" width="180" height="40" as="geometry" />
        </mxCell>
        <mxCell id="D8TExDitwnJTRp-4ELaG-80" style="shape=partialRectangle;connectable=0;fillColor=none;top=0;left=0;bottom=0;right=0;editable=1;overflow=hidden;" vertex="1" parent="D8TExDitwnJTRp-4ELaG-79">
          <mxGeometry width="30" height="40" as="geometry" />
        </mxCell>
        <mxCell id="D8TExDitwnJTRp-4ELaG-81" value="AREA_NAME" style="shape=partialRectangle;connectable=0;fillColor=none;top=0;left=0;bottom=0;right=0;align=left;spacingLeft=6;overflow=hidden;" vertex="1" parent="D8TExDitwnJTRp-4ELaG-79">
          <mxGeometry x="30" width="150" height="40" as="geometry" />
        </mxCell>
        <mxCell id="D8TExDitwnJTRp-4ELaG-76" style="shape=partialRectangle;collapsible=0;dropTarget=0;pointerEvents=0;fillColor=none;top=0;left=0;bottom=0;right=0;points=[[0,0.5],[1,0.5]];portConstraint=eastwest;" vertex="1" parent="D8TExDitwnJTRp-4ELaG-1">
          <mxGeometry y="490" width="180" height="30" as="geometry" />
        </mxCell>
        <mxCell id="D8TExDitwnJTRp-4ELaG-77" style="shape=partialRectangle;connectable=0;fillColor=none;top=0;left=0;bottom=0;right=0;editable=1;overflow=hidden;" vertex="1" parent="D8TExDitwnJTRp-4ELaG-76">
          <mxGeometry width="30" height="30" as="geometry" />
        </mxCell>
        <mxCell id="D8TExDitwnJTRp-4ELaG-78" value="IS_FULL_AMO" style="shape=partialRectangle;connectable=0;fillColor=none;top=0;left=0;bottom=0;right=0;align=left;spacingLeft=6;overflow=hidden;" vertex="1" parent="D8TExDitwnJTRp-4ELaG-76">
          <mxGeometry x="30" width="150" height="30" as="geometry" />
        </mxCell>
        <mxCell id="D8TExDitwnJTRp-4ELaG-73" style="shape=partialRectangle;collapsible=0;dropTarget=0;pointerEvents=0;fillColor=none;top=0;left=0;bottom=0;right=0;points=[[0,0.5],[1,0.5]];portConstraint=eastwest;" vertex="1" parent="D8TExDitwnJTRp-4ELaG-1">
          <mxGeometry y="520" width="180" height="30" as="geometry" />
        </mxCell>
        <mxCell id="D8TExDitwnJTRp-4ELaG-74" style="shape=partialRectangle;connectable=0;fillColor=none;top=0;left=0;bottom=0;right=0;editable=1;overflow=hidden;" vertex="1" parent="D8TExDitwnJTRp-4ELaG-73">
          <mxGeometry width="30" height="30" as="geometry" />
        </mxCell>
        <mxCell id="D8TExDitwnJTRp-4ELaG-75" value="CRE_TIME" style="shape=partialRectangle;connectable=0;fillColor=none;top=0;left=0;bottom=0;right=0;align=left;spacingLeft=6;overflow=hidden;" vertex="1" parent="D8TExDitwnJTRp-4ELaG-73">
          <mxGeometry x="30" width="150" height="30" as="geometry" />
        </mxCell>
        <mxCell id="D8TExDitwnJTRp-4ELaG-40" style="shape=partialRectangle;collapsible=0;dropTarget=0;pointerEvents=0;fillColor=none;top=0;left=0;bottom=0;right=0;points=[[0,0.5],[1,0.5]];portConstraint=eastwest;" vertex="1" parent="D8TExDitwnJTRp-4ELaG-1">
          <mxGeometry y="550" width="180" height="30" as="geometry" />
        </mxCell>
        <mxCell id="D8TExDitwnJTRp-4ELaG-41" style="shape=partialRectangle;connectable=0;fillColor=none;top=0;left=0;bottom=0;right=0;editable=1;overflow=hidden;" vertex="1" parent="D8TExDitwnJTRp-4ELaG-40">
          <mxGeometry width="30" height="30" as="geometry" />
        </mxCell>
        <mxCell id="D8TExDitwnJTRp-4ELaG-42" value="TAX_RATE" style="shape=partialRectangle;connectable=0;fillColor=none;top=0;left=0;bottom=0;right=0;align=left;spacingLeft=6;overflow=hidden;" vertex="1" parent="D8TExDitwnJTRp-4ELaG-40">
          <mxGeometry x="30" width="150" height="30" as="geometry" />
        </mxCell>
        <mxCell id="D8TExDitwnJTRp-4ELaG-203" value="FM_ACCOU_INV_SUBJECT" style="shape=table;startSize=30;container=1;collapsible=1;childLayout=tableLayout;fixedRows=1;rowLines=0;fontStyle=1;align=center;resizeLast=1;" vertex="1" parent="1">
          <mxGeometry x="880" y="600" width="190" height="150" as="geometry" />
        </mxCell>
        <mxCell id="D8TExDitwnJTRp-4ELaG-204" value="" style="shape=partialRectangle;collapsible=0;dropTarget=0;pointerEvents=0;fillColor=none;top=0;left=0;bottom=1;right=0;points=[[0,0.5],[1,0.5]];portConstraint=eastwest;" vertex="1" parent="D8TExDitwnJTRp-4ELaG-203">
          <mxGeometry y="30" width="190" height="30" as="geometry" />
        </mxCell>
        <mxCell id="D8TExDitwnJTRp-4ELaG-205" value="PK" style="shape=partialRectangle;connectable=0;fillColor=none;top=0;left=0;bottom=0;right=0;fontStyle=1;overflow=hidden;" vertex="1" parent="D8TExDitwnJTRp-4ELaG-204">
          <mxGeometry width="30" height="30" as="geometry" />
        </mxCell>
        <mxCell id="D8TExDitwnJTRp-4ELaG-206" value="INV_SUB_ID" style="shape=partialRectangle;connectable=0;fillColor=none;top=0;left=0;bottom=0;right=0;align=left;spacingLeft=6;fontStyle=5;overflow=hidden;" vertex="1" parent="D8TExDitwnJTRp-4ELaG-204">
          <mxGeometry x="30" width="160" height="30" as="geometry" />
        </mxCell>
        <mxCell id="D8TExDitwnJTRp-4ELaG-207" value="" style="shape=partialRectangle;collapsible=0;dropTarget=0;pointerEvents=0;fillColor=none;top=0;left=0;bottom=0;right=0;points=[[0,0.5],[1,0.5]];portConstraint=eastwest;" vertex="1" parent="D8TExDitwnJTRp-4ELaG-203">
          <mxGeometry y="60" width="190" height="30" as="geometry" />
        </mxCell>
        <mxCell id="D8TExDitwnJTRp-4ELaG-208" value="" style="shape=partialRectangle;connectable=0;fillColor=none;top=0;left=0;bottom=0;right=0;editable=1;overflow=hidden;" vertex="1" parent="D8TExDitwnJTRp-4ELaG-207">
          <mxGeometry width="30" height="30" as="geometry" />
        </mxCell>
        <mxCell id="D8TExDitwnJTRp-4ELaG-209" value="INV_SUB_NAME" style="shape=partialRectangle;connectable=0;fillColor=none;top=0;left=0;bottom=0;right=0;align=left;spacingLeft=6;overflow=hidden;" vertex="1" parent="D8TExDitwnJTRp-4ELaG-207">
          <mxGeometry x="30" width="160" height="30" as="geometry" />
        </mxCell>
        <mxCell id="D8TExDitwnJTRp-4ELaG-210" value="" style="shape=partialRectangle;collapsible=0;dropTarget=0;pointerEvents=0;fillColor=none;top=0;left=0;bottom=0;right=0;points=[[0,0.5],[1,0.5]];portConstraint=eastwest;" vertex="1" parent="D8TExDitwnJTRp-4ELaG-203">
          <mxGeometry y="90" width="190" height="30" as="geometry" />
        </mxCell>
        <mxCell id="D8TExDitwnJTRp-4ELaG-211" value="" style="shape=partialRectangle;connectable=0;fillColor=none;top=0;left=0;bottom=0;right=0;editable=1;overflow=hidden;" vertex="1" parent="D8TExDitwnJTRp-4ELaG-210">
          <mxGeometry width="30" height="30" as="geometry" />
        </mxCell>
        <mxCell id="D8TExDitwnJTRp-4ELaG-212" value="" style="shape=partialRectangle;connectable=0;fillColor=none;top=0;left=0;bottom=0;right=0;align=left;spacingLeft=6;overflow=hidden;" vertex="1" parent="D8TExDitwnJTRp-4ELaG-210">
          <mxGeometry x="30" width="160" height="30" as="geometry" />
        </mxCell>
        <mxCell id="D8TExDitwnJTRp-4ELaG-213" value="" style="shape=partialRectangle;collapsible=0;dropTarget=0;pointerEvents=0;fillColor=none;top=0;left=0;bottom=0;right=0;points=[[0,0.5],[1,0.5]];portConstraint=eastwest;" vertex="1" parent="D8TExDitwnJTRp-4ELaG-203">
          <mxGeometry y="120" width="190" height="30" as="geometry" />
        </mxCell>
        <mxCell id="D8TExDitwnJTRp-4ELaG-214" value="" style="shape=partialRectangle;connectable=0;fillColor=none;top=0;left=0;bottom=0;right=0;editable=1;overflow=hidden;" vertex="1" parent="D8TExDitwnJTRp-4ELaG-213">
          <mxGeometry width="30" height="30" as="geometry" />
        </mxCell>
        <mxCell id="D8TExDitwnJTRp-4ELaG-215" value="" style="shape=partialRectangle;connectable=0;fillColor=none;top=0;left=0;bottom=0;right=0;align=left;spacingLeft=6;overflow=hidden;" vertex="1" parent="D8TExDitwnJTRp-4ELaG-213">
          <mxGeometry x="30" width="160" height="30" as="geometry" />
        </mxCell>
        <mxCell id="D8TExDitwnJTRp-4ELaG-251" style="edgeStyle=orthogonalEdgeStyle;rounded=0;orthogonalLoop=1;jettySize=auto;html=1;exitX=1;exitY=0.5;exitDx=0;exitDy=0;entryX=0;entryY=0.5;entryDx=0;entryDy=0;" edge="1" parent="1" source="D8TExDitwnJTRp-4ELaG-204" target="D8TExDitwnJTRp-4ELaG-52">
          <mxGeometry relative="1" as="geometry" />
        </mxCell>
        <mxCell id="D8TExDitwnJTRp-4ELaG-252" style="edgeStyle=orthogonalEdgeStyle;rounded=0;orthogonalLoop=1;jettySize=auto;html=1;exitX=1;exitY=0.5;exitDx=0;exitDy=0;entryX=0;entryY=0.5;entryDx=0;entryDy=0;" edge="1" parent="1" source="D8TExDitwnJTRp-4ELaG-15" target="D8TExDitwnJTRp-4ELaG-61">
          <mxGeometry relative="1" as="geometry" />
        </mxCell>
        <mxCell id="D8TExDitwnJTRp-4ELaG-14" value="CS_CHA_NOT" style="shape=table;startSize=30;container=1;collapsible=1;childLayout=tableLayout;fixedRows=1;rowLines=0;fontStyle=1;align=center;resizeLast=1;" vertex="1" parent="1">
          <mxGeometry x="660" y="330" width="210" height="580" as="geometry" />
        </mxCell>
        <mxCell id="D8TExDitwnJTRp-4ELaG-15" value="" style="shape=partialRectangle;collapsible=0;dropTarget=0;pointerEvents=0;fillColor=none;top=0;left=0;bottom=1;right=0;points=[[0,0.5],[1,0.5]];portConstraint=eastwest;" vertex="1" parent="D8TExDitwnJTRp-4ELaG-14">
          <mxGeometry y="30" width="210" height="30" as="geometry" />
        </mxCell>
        <mxCell id="D8TExDitwnJTRp-4ELaG-16" value="PK" style="shape=partialRectangle;connectable=0;fillColor=none;top=0;left=0;bottom=0;right=0;fontStyle=1;overflow=hidden;" vertex="1" parent="D8TExDitwnJTRp-4ELaG-15">
          <mxGeometry width="30" height="30" as="geometry" />
        </mxCell>
        <mxCell id="D8TExDitwnJTRp-4ELaG-17" value="CHA_NOT_ID" style="shape=partialRectangle;connectable=0;fillColor=none;top=0;left=0;bottom=0;right=0;align=left;spacingLeft=6;fontStyle=5;overflow=hidden;" vertex="1" parent="D8TExDitwnJTRp-4ELaG-15">
          <mxGeometry x="30" width="180" height="30" as="geometry" />
        </mxCell>
        <mxCell id="D8TExDitwnJTRp-4ELaG-18" value="" style="shape=partialRectangle;collapsible=0;dropTarget=0;pointerEvents=0;fillColor=none;top=0;left=0;bottom=0;right=0;points=[[0,0.5],[1,0.5]];portConstraint=eastwest;" vertex="1" parent="D8TExDitwnJTRp-4ELaG-14">
          <mxGeometry y="60" width="210" height="30" as="geometry" />
        </mxCell>
        <mxCell id="D8TExDitwnJTRp-4ELaG-19" value="" style="shape=partialRectangle;connectable=0;fillColor=none;top=0;left=0;bottom=0;right=0;editable=1;overflow=hidden;" vertex="1" parent="D8TExDitwnJTRp-4ELaG-18">
          <mxGeometry width="30" height="30" as="geometry" />
        </mxCell>
        <mxCell id="D8TExDitwnJTRp-4ELaG-20" value="CHA_REP_BUSI_DEP_ID" style="shape=partialRectangle;connectable=0;fillColor=none;top=0;left=0;bottom=0;right=0;align=left;spacingLeft=6;overflow=hidden;" vertex="1" parent="D8TExDitwnJTRp-4ELaG-18">
          <mxGeometry x="30" width="180" height="30" as="geometry" />
        </mxCell>
        <mxCell id="D8TExDitwnJTRp-4ELaG-21" value="" style="shape=partialRectangle;collapsible=0;dropTarget=0;pointerEvents=0;fillColor=none;top=0;left=0;bottom=0;right=0;points=[[0,0.5],[1,0.5]];portConstraint=eastwest;" vertex="1" parent="D8TExDitwnJTRp-4ELaG-14">
          <mxGeometry y="90" width="210" height="30" as="geometry" />
        </mxCell>
        <mxCell id="D8TExDitwnJTRp-4ELaG-22" value="" style="shape=partialRectangle;connectable=0;fillColor=none;top=0;left=0;bottom=0;right=0;editable=1;overflow=hidden;" vertex="1" parent="D8TExDitwnJTRp-4ELaG-21">
          <mxGeometry width="30" height="30" as="geometry" />
        </mxCell>
        <mxCell id="D8TExDitwnJTRp-4ELaG-23" value="CHA_TAG" style="shape=partialRectangle;connectable=0;fillColor=none;top=0;left=0;bottom=0;right=0;align=left;spacingLeft=6;overflow=hidden;" vertex="1" parent="D8TExDitwnJTRp-4ELaG-21">
          <mxGeometry x="30" width="180" height="30" as="geometry" />
        </mxCell>
        <mxCell id="D8TExDitwnJTRp-4ELaG-24" value="" style="shape=partialRectangle;collapsible=0;dropTarget=0;pointerEvents=0;fillColor=none;top=0;left=0;bottom=0;right=0;points=[[0,0.5],[1,0.5]];portConstraint=eastwest;" vertex="1" parent="D8TExDitwnJTRp-4ELaG-14">
          <mxGeometry y="120" width="210" height="30" as="geometry" />
        </mxCell>
        <mxCell id="D8TExDitwnJTRp-4ELaG-25" value="" style="shape=partialRectangle;connectable=0;fillColor=none;top=0;left=0;bottom=0;right=0;editable=1;overflow=hidden;" vertex="1" parent="D8TExDitwnJTRp-4ELaG-24">
          <mxGeometry width="30" height="30" as="geometry" />
        </mxCell>
        <mxCell id="D8TExDitwnJTRp-4ELaG-26" value="INV_TAG" style="shape=partialRectangle;connectable=0;fillColor=none;top=0;left=0;bottom=0;right=0;align=left;spacingLeft=6;overflow=hidden;" vertex="1" parent="D8TExDitwnJTRp-4ELaG-24">
          <mxGeometry x="30" width="180" height="30" as="geometry" />
        </mxCell>
        <mxCell id="D8TExDitwnJTRp-4ELaG-121" style="shape=partialRectangle;collapsible=0;dropTarget=0;pointerEvents=0;fillColor=none;top=0;left=0;bottom=0;right=0;points=[[0,0.5],[1,0.5]];portConstraint=eastwest;" vertex="1" parent="D8TExDitwnJTRp-4ELaG-14">
          <mxGeometry y="150" width="210" height="30" as="geometry" />
        </mxCell>
        <mxCell id="D8TExDitwnJTRp-4ELaG-122" style="shape=partialRectangle;connectable=0;fillColor=none;top=0;left=0;bottom=0;right=0;editable=1;overflow=hidden;" vertex="1" parent="D8TExDitwnJTRp-4ELaG-121">
          <mxGeometry width="30" height="30" as="geometry" />
        </mxCell>
        <mxCell id="D8TExDitwnJTRp-4ELaG-123" value="INV_NO" style="shape=partialRectangle;connectable=0;fillColor=none;top=0;left=0;bottom=0;right=0;align=left;spacingLeft=6;overflow=hidden;" vertex="1" parent="D8TExDitwnJTRp-4ELaG-121">
          <mxGeometry x="30" width="180" height="30" as="geometry" />
        </mxCell>
        <mxCell id="D8TExDitwnJTRp-4ELaG-118" style="shape=partialRectangle;collapsible=0;dropTarget=0;pointerEvents=0;fillColor=none;top=0;left=0;bottom=0;right=0;points=[[0,0.5],[1,0.5]];portConstraint=eastwest;" vertex="1" parent="D8TExDitwnJTRp-4ELaG-14">
          <mxGeometry y="180" width="210" height="30" as="geometry" />
        </mxCell>
        <mxCell id="D8TExDitwnJTRp-4ELaG-119" style="shape=partialRectangle;connectable=0;fillColor=none;top=0;left=0;bottom=0;right=0;editable=1;overflow=hidden;" vertex="1" parent="D8TExDitwnJTRp-4ELaG-118">
          <mxGeometry width="30" height="30" as="geometry" />
        </mxCell>
        <mxCell id="D8TExDitwnJTRp-4ELaG-120" value="PO_NO" style="shape=partialRectangle;connectable=0;fillColor=none;top=0;left=0;bottom=0;right=0;align=left;spacingLeft=6;overflow=hidden;" vertex="1" parent="D8TExDitwnJTRp-4ELaG-118">
          <mxGeometry x="30" width="180" height="30" as="geometry" />
        </mxCell>
        <mxCell id="D8TExDitwnJTRp-4ELaG-115" style="shape=partialRectangle;collapsible=0;dropTarget=0;pointerEvents=0;fillColor=none;top=0;left=0;bottom=0;right=0;points=[[0,0.5],[1,0.5]];portConstraint=eastwest;" vertex="1" parent="D8TExDitwnJTRp-4ELaG-14">
          <mxGeometry y="210" width="210" height="40" as="geometry" />
        </mxCell>
        <mxCell id="D8TExDitwnJTRp-4ELaG-116" style="shape=partialRectangle;connectable=0;fillColor=none;top=0;left=0;bottom=0;right=0;editable=1;overflow=hidden;" vertex="1" parent="D8TExDitwnJTRp-4ELaG-115">
          <mxGeometry width="30" height="40" as="geometry" />
        </mxCell>
        <mxCell id="D8TExDitwnJTRp-4ELaG-117" value="INV_UNIT_NAME" style="shape=partialRectangle;connectable=0;fillColor=none;top=0;left=0;bottom=0;right=0;align=left;spacingLeft=6;overflow=hidden;" vertex="1" parent="D8TExDitwnJTRp-4ELaG-115">
          <mxGeometry x="30" width="180" height="40" as="geometry" />
        </mxCell>
        <mxCell id="D8TExDitwnJTRp-4ELaG-112" style="shape=partialRectangle;collapsible=0;dropTarget=0;pointerEvents=0;fillColor=none;top=0;left=0;bottom=0;right=0;points=[[0,0.5],[1,0.5]];portConstraint=eastwest;" vertex="1" parent="D8TExDitwnJTRp-4ELaG-14">
          <mxGeometry y="250" width="210" height="30" as="geometry" />
        </mxCell>
        <mxCell id="D8TExDitwnJTRp-4ELaG-113" style="shape=partialRectangle;connectable=0;fillColor=none;top=0;left=0;bottom=0;right=0;editable=1;overflow=hidden;" vertex="1" parent="D8TExDitwnJTRp-4ELaG-112">
          <mxGeometry width="30" height="30" as="geometry" />
        </mxCell>
        <mxCell id="D8TExDitwnJTRp-4ELaG-114" value="BILL_TYPE" style="shape=partialRectangle;connectable=0;fillColor=none;top=0;left=0;bottom=0;right=0;align=left;spacingLeft=6;overflow=hidden;" vertex="1" parent="D8TExDitwnJTRp-4ELaG-112">
          <mxGeometry x="30" width="180" height="30" as="geometry" />
        </mxCell>
        <mxCell id="D8TExDitwnJTRp-4ELaG-109" style="shape=partialRectangle;collapsible=0;dropTarget=0;pointerEvents=0;fillColor=none;top=0;left=0;bottom=0;right=0;points=[[0,0.5],[1,0.5]];portConstraint=eastwest;" vertex="1" parent="D8TExDitwnJTRp-4ELaG-14">
          <mxGeometry y="280" width="210" height="30" as="geometry" />
        </mxCell>
        <mxCell id="D8TExDitwnJTRp-4ELaG-110" style="shape=partialRectangle;connectable=0;fillColor=none;top=0;left=0;bottom=0;right=0;editable=1;overflow=hidden;" vertex="1" parent="D8TExDitwnJTRp-4ELaG-109">
          <mxGeometry width="30" height="30" as="geometry" />
        </mxCell>
        <mxCell id="D8TExDitwnJTRp-4ELaG-111" value="OLD_SYS_CHA_FLAG" style="shape=partialRectangle;connectable=0;fillColor=none;top=0;left=0;bottom=0;right=0;align=left;spacingLeft=6;overflow=hidden;" vertex="1" parent="D8TExDitwnJTRp-4ELaG-109">
          <mxGeometry x="30" width="180" height="30" as="geometry" />
        </mxCell>
        <mxCell id="D8TExDitwnJTRp-4ELaG-106" style="shape=partialRectangle;collapsible=0;dropTarget=0;pointerEvents=0;fillColor=none;top=0;left=0;bottom=0;right=0;points=[[0,0.5],[1,0.5]];portConstraint=eastwest;" vertex="1" parent="D8TExDitwnJTRp-4ELaG-14">
          <mxGeometry y="310" width="210" height="30" as="geometry" />
        </mxCell>
        <mxCell id="D8TExDitwnJTRp-4ELaG-107" style="shape=partialRectangle;connectable=0;fillColor=none;top=0;left=0;bottom=0;right=0;editable=1;overflow=hidden;" vertex="1" parent="D8TExDitwnJTRp-4ELaG-106">
          <mxGeometry width="30" height="30" as="geometry" />
        </mxCell>
        <mxCell id="D8TExDitwnJTRp-4ELaG-108" value="CHA_NOT_TYPE" style="shape=partialRectangle;connectable=0;fillColor=none;top=0;left=0;bottom=0;right=0;align=left;spacingLeft=6;overflow=hidden;" vertex="1" parent="D8TExDitwnJTRp-4ELaG-106">
          <mxGeometry x="30" width="180" height="30" as="geometry" />
        </mxCell>
        <mxCell id="D8TExDitwnJTRp-4ELaG-103" style="shape=partialRectangle;collapsible=0;dropTarget=0;pointerEvents=0;fillColor=none;top=0;left=0;bottom=0;right=0;points=[[0,0.5],[1,0.5]];portConstraint=eastwest;" vertex="1" parent="D8TExDitwnJTRp-4ELaG-14">
          <mxGeometry y="340" width="210" height="30" as="geometry" />
        </mxCell>
        <mxCell id="D8TExDitwnJTRp-4ELaG-104" style="shape=partialRectangle;connectable=0;fillColor=none;top=0;left=0;bottom=0;right=0;editable=1;overflow=hidden;" vertex="1" parent="D8TExDitwnJTRp-4ELaG-103">
          <mxGeometry width="30" height="30" as="geometry" />
        </mxCell>
        <mxCell id="D8TExDitwnJTRp-4ELaG-105" value="ACC_PER /*--62账期天数(cs_cha_not)*/" style="shape=partialRectangle;connectable=0;fillColor=none;top=0;left=0;bottom=0;right=0;align=left;spacingLeft=6;overflow=hidden;" vertex="1" parent="D8TExDitwnJTRp-4ELaG-103">
          <mxGeometry x="30" width="180" height="30" as="geometry" />
        </mxCell>
        <mxCell id="D8TExDitwnJTRp-4ELaG-100" style="shape=partialRectangle;collapsible=0;dropTarget=0;pointerEvents=0;fillColor=none;top=0;left=0;bottom=0;right=0;points=[[0,0.5],[1,0.5]];portConstraint=eastwest;" vertex="1" parent="D8TExDitwnJTRp-4ELaG-14">
          <mxGeometry y="370" width="210" height="30" as="geometry" />
        </mxCell>
        <mxCell id="D8TExDitwnJTRp-4ELaG-101" style="shape=partialRectangle;connectable=0;fillColor=none;top=0;left=0;bottom=0;right=0;editable=1;overflow=hidden;" vertex="1" parent="D8TExDitwnJTRp-4ELaG-100">
          <mxGeometry width="30" height="30" as="geometry" />
        </mxCell>
        <mxCell id="D8TExDitwnJTRp-4ELaG-102" value="LAST_CHA_DATE" style="shape=partialRectangle;connectable=0;fillColor=none;top=0;left=0;bottom=0;right=0;align=left;spacingLeft=6;overflow=hidden;" vertex="1" parent="D8TExDitwnJTRp-4ELaG-100">
          <mxGeometry x="30" width="180" height="30" as="geometry" />
        </mxCell>
        <mxCell id="D8TExDitwnJTRp-4ELaG-97" style="shape=partialRectangle;collapsible=0;dropTarget=0;pointerEvents=0;fillColor=none;top=0;left=0;bottom=0;right=0;points=[[0,0.5],[1,0.5]];portConstraint=eastwest;" vertex="1" parent="D8TExDitwnJTRp-4ELaG-14">
          <mxGeometry y="400" width="210" height="30" as="geometry" />
        </mxCell>
        <mxCell id="D8TExDitwnJTRp-4ELaG-98" style="shape=partialRectangle;connectable=0;fillColor=none;top=0;left=0;bottom=0;right=0;editable=1;overflow=hidden;" vertex="1" parent="D8TExDitwnJTRp-4ELaG-97">
          <mxGeometry width="30" height="30" as="geometry" />
        </mxCell>
        <mxCell id="D8TExDitwnJTRp-4ELaG-99" value="REMI_GET_ID" style="shape=partialRectangle;connectable=0;fillColor=none;top=0;left=0;bottom=0;right=0;align=left;spacingLeft=6;overflow=hidden;" vertex="1" parent="D8TExDitwnJTRp-4ELaG-97">
          <mxGeometry x="30" width="180" height="30" as="geometry" />
        </mxCell>
        <mxCell id="D8TExDitwnJTRp-4ELaG-94" style="shape=partialRectangle;collapsible=0;dropTarget=0;pointerEvents=0;fillColor=none;top=0;left=0;bottom=0;right=0;points=[[0,0.5],[1,0.5]];portConstraint=eastwest;" vertex="1" parent="D8TExDitwnJTRp-4ELaG-14">
          <mxGeometry y="430" width="210" height="30" as="geometry" />
        </mxCell>
        <mxCell id="D8TExDitwnJTRp-4ELaG-95" style="shape=partialRectangle;connectable=0;fillColor=none;top=0;left=0;bottom=0;right=0;editable=1;overflow=hidden;" vertex="1" parent="D8TExDitwnJTRp-4ELaG-94">
          <mxGeometry width="30" height="30" as="geometry" />
        </mxCell>
        <mxCell id="D8TExDitwnJTRp-4ELaG-96" style="shape=partialRectangle;connectable=0;fillColor=none;top=0;left=0;bottom=0;right=0;align=left;spacingLeft=6;overflow=hidden;" vertex="1" parent="D8TExDitwnJTRp-4ELaG-94">
          <mxGeometry x="30" width="180" height="30" as="geometry" />
        </mxCell>
        <mxCell id="D8TExDitwnJTRp-4ELaG-91" style="shape=partialRectangle;collapsible=0;dropTarget=0;pointerEvents=0;fillColor=none;top=0;left=0;bottom=0;right=0;points=[[0,0.5],[1,0.5]];portConstraint=eastwest;" vertex="1" parent="D8TExDitwnJTRp-4ELaG-14">
          <mxGeometry y="460" width="210" height="30" as="geometry" />
        </mxCell>
        <mxCell id="D8TExDitwnJTRp-4ELaG-92" style="shape=partialRectangle;connectable=0;fillColor=none;top=0;left=0;bottom=0;right=0;editable=1;overflow=hidden;" vertex="1" parent="D8TExDitwnJTRp-4ELaG-91">
          <mxGeometry width="30" height="30" as="geometry" />
        </mxCell>
        <mxCell id="D8TExDitwnJTRp-4ELaG-93" style="shape=partialRectangle;connectable=0;fillColor=none;top=0;left=0;bottom=0;right=0;align=left;spacingLeft=6;overflow=hidden;" vertex="1" parent="D8TExDitwnJTRp-4ELaG-91">
          <mxGeometry x="30" width="180" height="30" as="geometry" />
        </mxCell>
        <mxCell id="D8TExDitwnJTRp-4ELaG-88" style="shape=partialRectangle;collapsible=0;dropTarget=0;pointerEvents=0;fillColor=none;top=0;left=0;bottom=0;right=0;points=[[0,0.5],[1,0.5]];portConstraint=eastwest;" vertex="1" parent="D8TExDitwnJTRp-4ELaG-14">
          <mxGeometry y="490" width="210" height="30" as="geometry" />
        </mxCell>
        <mxCell id="D8TExDitwnJTRp-4ELaG-89" style="shape=partialRectangle;connectable=0;fillColor=none;top=0;left=0;bottom=0;right=0;editable=1;overflow=hidden;" vertex="1" parent="D8TExDitwnJTRp-4ELaG-88">
          <mxGeometry width="30" height="30" as="geometry" />
        </mxCell>
        <mxCell id="D8TExDitwnJTRp-4ELaG-90" style="shape=partialRectangle;connectable=0;fillColor=none;top=0;left=0;bottom=0;right=0;align=left;spacingLeft=6;overflow=hidden;" vertex="1" parent="D8TExDitwnJTRp-4ELaG-88">
          <mxGeometry x="30" width="180" height="30" as="geometry" />
        </mxCell>
        <mxCell id="D8TExDitwnJTRp-4ELaG-85" style="shape=partialRectangle;collapsible=0;dropTarget=0;pointerEvents=0;fillColor=none;top=0;left=0;bottom=0;right=0;points=[[0,0.5],[1,0.5]];portConstraint=eastwest;" vertex="1" parent="D8TExDitwnJTRp-4ELaG-14">
          <mxGeometry y="520" width="210" height="30" as="geometry" />
        </mxCell>
        <mxCell id="D8TExDitwnJTRp-4ELaG-86" style="shape=partialRectangle;connectable=0;fillColor=none;top=0;left=0;bottom=0;right=0;editable=1;overflow=hidden;" vertex="1" parent="D8TExDitwnJTRp-4ELaG-85">
          <mxGeometry width="30" height="30" as="geometry" />
        </mxCell>
        <mxCell id="D8TExDitwnJTRp-4ELaG-87" style="shape=partialRectangle;connectable=0;fillColor=none;top=0;left=0;bottom=0;right=0;align=left;spacingLeft=6;overflow=hidden;" vertex="1" parent="D8TExDitwnJTRp-4ELaG-85">
          <mxGeometry x="30" width="180" height="30" as="geometry" />
        </mxCell>
        <mxCell id="D8TExDitwnJTRp-4ELaG-82" style="shape=partialRectangle;collapsible=0;dropTarget=0;pointerEvents=0;fillColor=none;top=0;left=0;bottom=0;right=0;points=[[0,0.5],[1,0.5]];portConstraint=eastwest;" vertex="1" parent="D8TExDitwnJTRp-4ELaG-14">
          <mxGeometry y="550" width="210" height="30" as="geometry" />
        </mxCell>
        <mxCell id="D8TExDitwnJTRp-4ELaG-83" style="shape=partialRectangle;connectable=0;fillColor=none;top=0;left=0;bottom=0;right=0;editable=1;overflow=hidden;" vertex="1" parent="D8TExDitwnJTRp-4ELaG-82">
          <mxGeometry width="30" height="30" as="geometry" />
        </mxCell>
        <mxCell id="D8TExDitwnJTRp-4ELaG-84" style="shape=partialRectangle;connectable=0;fillColor=none;top=0;left=0;bottom=0;right=0;align=left;spacingLeft=6;overflow=hidden;" vertex="1" parent="D8TExDitwnJTRp-4ELaG-82">
          <mxGeometry x="30" width="180" height="30" as="geometry" />
        </mxCell>
        <mxCell id="D8TExDitwnJTRp-4ELaG-253" style="edgeStyle=orthogonalEdgeStyle;rounded=0;orthogonalLoop=1;jettySize=auto;html=1;exitX=1;exitY=0.5;exitDx=0;exitDy=0;" edge="1" parent="1" source="D8TExDitwnJTRp-4ELaG-28" target="D8TExDitwnJTRp-4ELaG-8">
          <mxGeometry relative="1" as="geometry">
            <Array as="points">
              <mxPoint x="510" y="105" />
              <mxPoint x="510" y="260" />
              <mxPoint x="910" y="260" />
              <mxPoint x="910" y="435" />
            </Array>
          </mxGeometry>
        </mxCell>
        <mxCell id="D8TExDitwnJTRp-4ELaG-254" value="CS_NATI_OI_DET" style="shape=table;startSize=30;container=1;collapsible=1;childLayout=tableLayout;fixedRows=1;rowLines=0;fontStyle=1;align=center;resizeLast=1;" vertex="1" parent="1">
          <mxGeometry x="230" y="320" width="310" height="600" as="geometry" />
        </mxCell>
        <mxCell id="D8TExDitwnJTRp-4ELaG-255" value="" style="shape=partialRectangle;collapsible=0;dropTarget=0;pointerEvents=0;fillColor=none;top=0;left=0;bottom=1;right=0;points=[[0,0.5],[1,0.5]];portConstraint=eastwest;" vertex="1" parent="D8TExDitwnJTRp-4ELaG-254">
          <mxGeometry y="30" width="310" height="30" as="geometry" />
        </mxCell>
        <mxCell id="D8TExDitwnJTRp-4ELaG-256" value="PK" style="shape=partialRectangle;connectable=0;fillColor=none;top=0;left=0;bottom=0;right=0;fontStyle=1;overflow=hidden;" vertex="1" parent="D8TExDitwnJTRp-4ELaG-255">
          <mxGeometry width="30" height="30" as="geometry" />
        </mxCell>
        <mxCell id="D8TExDitwnJTRp-4ELaG-257" value="NATI_OI_DET_ID" style="shape=partialRectangle;connectable=0;fillColor=none;top=0;left=0;bottom=0;right=0;align=left;spacingLeft=6;fontStyle=5;overflow=hidden;" vertex="1" parent="D8TExDitwnJTRp-4ELaG-255">
          <mxGeometry x="30" width="280" height="30" as="geometry" />
        </mxCell>
        <mxCell id="D8TExDitwnJTRp-4ELaG-300" style="shape=partialRectangle;collapsible=0;dropTarget=0;pointerEvents=0;fillColor=none;top=0;left=0;bottom=0;right=0;points=[[0,0.5],[1,0.5]];portConstraint=eastwest;" vertex="1" parent="D8TExDitwnJTRp-4ELaG-254">
          <mxGeometry y="60" width="310" height="30" as="geometry" />
        </mxCell>
        <mxCell id="D8TExDitwnJTRp-4ELaG-301" style="shape=partialRectangle;connectable=0;fillColor=none;top=0;left=0;bottom=0;right=0;editable=1;overflow=hidden;" vertex="1" parent="D8TExDitwnJTRp-4ELaG-300">
          <mxGeometry width="30" height="30" as="geometry" />
        </mxCell>
        <mxCell id="D8TExDitwnJTRp-4ELaG-302" value="PAY_NOT_ID" style="shape=partialRectangle;connectable=0;fillColor=none;top=0;left=0;bottom=0;right=0;align=left;spacingLeft=6;overflow=hidden;" vertex="1" parent="D8TExDitwnJTRp-4ELaG-300">
          <mxGeometry x="30" width="280" height="30" as="geometry" />
        </mxCell>
        <mxCell id="D8TExDitwnJTRp-4ELaG-258" style="shape=partialRectangle;collapsible=0;dropTarget=0;pointerEvents=0;fillColor=none;top=0;left=0;bottom=0;right=0;points=[[0,0.5],[1,0.5]];portConstraint=eastwest;" vertex="1" parent="D8TExDitwnJTRp-4ELaG-254">
          <mxGeometry y="90" width="310" height="30" as="geometry" />
        </mxCell>
        <mxCell id="D8TExDitwnJTRp-4ELaG-259" style="shape=partialRectangle;connectable=0;fillColor=none;top=0;left=0;bottom=0;right=0;editable=1;overflow=hidden;" vertex="1" parent="D8TExDitwnJTRp-4ELaG-258">
          <mxGeometry width="30" height="30" as="geometry" />
        </mxCell>
        <mxCell id="D8TExDitwnJTRp-4ELaG-260" value="SUM_AMO, /*  总金额（所有数量的总金额）  */" style="shape=partialRectangle;connectable=0;fillColor=none;top=0;left=0;bottom=0;right=0;align=left;spacingLeft=6;overflow=hidden;" vertex="1" parent="D8TExDitwnJTRp-4ELaG-258">
          <mxGeometry x="30" width="280" height="30" as="geometry" />
        </mxCell>
        <mxCell id="D8TExDitwnJTRp-4ELaG-261" value="" style="shape=partialRectangle;collapsible=0;dropTarget=0;pointerEvents=0;fillColor=none;top=0;left=0;bottom=0;right=0;points=[[0,0.5],[1,0.5]];portConstraint=eastwest;" vertex="1" parent="D8TExDitwnJTRp-4ELaG-254">
          <mxGeometry y="120" width="310" height="30" as="geometry" />
        </mxCell>
        <mxCell id="D8TExDitwnJTRp-4ELaG-262" value="" style="shape=partialRectangle;connectable=0;fillColor=none;top=0;left=0;bottom=0;right=0;editable=1;overflow=hidden;" vertex="1" parent="D8TExDitwnJTRp-4ELaG-261">
          <mxGeometry width="30" height="30" as="geometry" />
        </mxCell>
        <mxCell id="D8TExDitwnJTRp-4ELaG-263" value="BILLS_TYPE, /*  票据类型（发票/收据） */" style="shape=partialRectangle;connectable=0;fillColor=none;top=0;left=0;bottom=0;right=0;align=left;spacingLeft=6;overflow=hidden;" vertex="1" parent="D8TExDitwnJTRp-4ELaG-261">
          <mxGeometry x="30" width="280" height="30" as="geometry" />
        </mxCell>
        <mxCell id="D8TExDitwnJTRp-4ELaG-264" value="" style="shape=partialRectangle;collapsible=0;dropTarget=0;pointerEvents=0;fillColor=none;top=0;left=0;bottom=0;right=0;points=[[0,0.5],[1,0.5]];portConstraint=eastwest;" vertex="1" parent="D8TExDitwnJTRp-4ELaG-254">
          <mxGeometry y="150" width="310" height="30" as="geometry" />
        </mxCell>
        <mxCell id="D8TExDitwnJTRp-4ELaG-265" value="" style="shape=partialRectangle;connectable=0;fillColor=none;top=0;left=0;bottom=0;right=0;editable=1;overflow=hidden;" vertex="1" parent="D8TExDitwnJTRp-4ELaG-264">
          <mxGeometry width="30" height="30" as="geometry" />
        </mxCell>
        <mxCell id="D8TExDitwnJTRp-4ELaG-266" value="CRE_YM, /*  生成年月  */" style="shape=partialRectangle;connectable=0;fillColor=none;top=0;left=0;bottom=0;right=0;align=left;spacingLeft=6;overflow=hidden;" vertex="1" parent="D8TExDitwnJTRp-4ELaG-264">
          <mxGeometry x="30" width="280" height="30" as="geometry" />
        </mxCell>
        <mxCell id="D8TExDitwnJTRp-4ELaG-267" value="" style="shape=partialRectangle;collapsible=0;dropTarget=0;pointerEvents=0;fillColor=none;top=0;left=0;bottom=0;right=0;points=[[0,0.5],[1,0.5]];portConstraint=eastwest;" vertex="1" parent="D8TExDitwnJTRp-4ELaG-254">
          <mxGeometry y="180" width="310" height="30" as="geometry" />
        </mxCell>
        <mxCell id="D8TExDitwnJTRp-4ELaG-268" value="" style="shape=partialRectangle;connectable=0;fillColor=none;top=0;left=0;bottom=0;right=0;editable=1;overflow=hidden;" vertex="1" parent="D8TExDitwnJTRp-4ELaG-267">
          <mxGeometry width="30" height="30" as="geometry" />
        </mxCell>
        <mxCell id="D8TExDitwnJTRp-4ELaG-269" value="BUSI_YM, /* 业务年月  */" style="shape=partialRectangle;connectable=0;fillColor=none;top=0;left=0;bottom=0;right=0;align=left;spacingLeft=6;overflow=hidden;" vertex="1" parent="D8TExDitwnJTRp-4ELaG-267">
          <mxGeometry x="30" width="280" height="30" as="geometry" />
        </mxCell>
        <mxCell id="D8TExDitwnJTRp-4ELaG-270" style="shape=partialRectangle;collapsible=0;dropTarget=0;pointerEvents=0;fillColor=none;top=0;left=0;bottom=0;right=0;points=[[0,0.5],[1,0.5]];portConstraint=eastwest;" vertex="1" parent="D8TExDitwnJTRp-4ELaG-254">
          <mxGeometry y="210" width="310" height="30" as="geometry" />
        </mxCell>
        <mxCell id="D8TExDitwnJTRp-4ELaG-271" style="shape=partialRectangle;connectable=0;fillColor=none;top=0;left=0;bottom=0;right=0;editable=1;overflow=hidden;" vertex="1" parent="D8TExDitwnJTRp-4ELaG-270">
          <mxGeometry width="30" height="30" as="geometry" />
        </mxCell>
        <mxCell id="D8TExDitwnJTRp-4ELaG-272" value="OI_DET_CATE, /* 订单项明细类别 */" style="shape=partialRectangle;connectable=0;fillColor=none;top=0;left=0;bottom=0;right=0;align=left;spacingLeft=6;overflow=hidden;" vertex="1" parent="D8TExDitwnJTRp-4ELaG-270">
          <mxGeometry x="30" width="280" height="30" as="geometry" />
        </mxCell>
        <mxCell id="D8TExDitwnJTRp-4ELaG-273" style="shape=partialRectangle;collapsible=0;dropTarget=0;pointerEvents=0;fillColor=none;top=0;left=0;bottom=0;right=0;points=[[0,0.5],[1,0.5]];portConstraint=eastwest;" vertex="1" parent="D8TExDitwnJTRp-4ELaG-254">
          <mxGeometry y="240" width="310" height="30" as="geometry" />
        </mxCell>
        <mxCell id="D8TExDitwnJTRp-4ELaG-274" style="shape=partialRectangle;connectable=0;fillColor=none;top=0;left=0;bottom=0;right=0;editable=1;overflow=hidden;" vertex="1" parent="D8TExDitwnJTRp-4ELaG-273">
          <mxGeometry width="30" height="30" as="geometry" />
        </mxCell>
        <mxCell id="D8TExDitwnJTRp-4ELaG-275" value="SEC_INV_SUBJECT, /*  接单方二级发票科目ID */" style="shape=partialRectangle;connectable=0;fillColor=none;top=0;left=0;bottom=0;right=0;align=left;spacingLeft=6;overflow=hidden;" vertex="1" parent="D8TExDitwnJTRp-4ELaG-273">
          <mxGeometry x="30" width="280" height="30" as="geometry" />
        </mxCell>
        <mxCell id="D8TExDitwnJTRp-4ELaG-276" style="shape=partialRectangle;collapsible=0;dropTarget=0;pointerEvents=0;fillColor=none;top=0;left=0;bottom=0;right=0;points=[[0,0.5],[1,0.5]];portConstraint=eastwest;" vertex="1" parent="D8TExDitwnJTRp-4ELaG-254">
          <mxGeometry y="270" width="310" height="30" as="geometry" />
        </mxCell>
        <mxCell id="D8TExDitwnJTRp-4ELaG-277" style="shape=partialRectangle;connectable=0;fillColor=none;top=0;left=0;bottom=0;right=0;editable=1;overflow=hidden;" vertex="1" parent="D8TExDitwnJTRp-4ELaG-276">
          <mxGeometry width="30" height="30" as="geometry" />
        </mxCell>
        <mxCell id="D8TExDitwnJTRp-4ELaG-278" value="ORD_RECE_PROD_PRIC_SCHM_ID, /* 接单方产品定价方案ID */" style="shape=partialRectangle;connectable=0;fillColor=none;top=0;left=0;bottom=0;right=0;align=left;spacingLeft=6;overflow=hidden;" vertex="1" parent="D8TExDitwnJTRp-4ELaG-276">
          <mxGeometry x="30" width="280" height="30" as="geometry" />
        </mxCell>
        <mxCell id="D8TExDitwnJTRp-4ELaG-279" style="shape=partialRectangle;collapsible=0;dropTarget=0;pointerEvents=0;fillColor=none;top=0;left=0;bottom=0;right=0;points=[[0,0.5],[1,0.5]];portConstraint=eastwest;" vertex="1" parent="D8TExDitwnJTRp-4ELaG-254">
          <mxGeometry y="300" width="310" height="30" as="geometry" />
        </mxCell>
        <mxCell id="D8TExDitwnJTRp-4ELaG-280" style="shape=partialRectangle;connectable=0;fillColor=none;top=0;left=0;bottom=0;right=0;editable=1;overflow=hidden;" vertex="1" parent="D8TExDitwnJTRp-4ELaG-279">
          <mxGeometry width="30" height="30" as="geometry" />
        </mxCell>
        <mxCell id="D8TExDitwnJTRp-4ELaG-281" value="PAY_WAY, /* 支付方式（代收代付、托收） */" style="shape=partialRectangle;connectable=0;fillColor=none;top=0;left=0;bottom=0;right=0;align=left;spacingLeft=6;overflow=hidden;" vertex="1" parent="D8TExDitwnJTRp-4ELaG-279">
          <mxGeometry x="30" width="280" height="30" as="geometry" />
        </mxCell>
        <mxCell id="D8TExDitwnJTRp-4ELaG-282" style="shape=partialRectangle;collapsible=0;dropTarget=0;pointerEvents=0;fillColor=none;top=0;left=0;bottom=0;right=0;points=[[0,0.5],[1,0.5]];portConstraint=eastwest;" vertex="1" parent="D8TExDitwnJTRp-4ELaG-254">
          <mxGeometry y="330" width="310" height="30" as="geometry" />
        </mxCell>
        <mxCell id="D8TExDitwnJTRp-4ELaG-283" style="shape=partialRectangle;connectable=0;fillColor=none;top=0;left=0;bottom=0;right=0;editable=1;overflow=hidden;" vertex="1" parent="D8TExDitwnJTRp-4ELaG-282">
          <mxGeometry width="30" height="30" as="geometry" />
        </mxCell>
        <mxCell id="D8TExDitwnJTRp-4ELaG-284" value="PAY_FEES_WAY, /*  缴费方式（大库、单立户）  */" style="shape=partialRectangle;connectable=0;fillColor=none;top=0;left=0;bottom=0;right=0;align=left;spacingLeft=6;overflow=hidden;" vertex="1" parent="D8TExDitwnJTRp-4ELaG-282">
          <mxGeometry x="30" width="280" height="30" as="geometry" />
        </mxCell>
        <mxCell id="D8TExDitwnJTRp-4ELaG-285" style="shape=partialRectangle;collapsible=0;dropTarget=0;pointerEvents=0;fillColor=none;top=0;left=0;bottom=0;right=0;points=[[0,0.5],[1,0.5]];portConstraint=eastwest;" vertex="1" parent="D8TExDitwnJTRp-4ELaG-254">
          <mxGeometry y="360" width="310" height="30" as="geometry" />
        </mxCell>
        <mxCell id="D8TExDitwnJTRp-4ELaG-286" style="shape=partialRectangle;connectable=0;fillColor=none;top=0;left=0;bottom=0;right=0;editable=1;overflow=hidden;" vertex="1" parent="D8TExDitwnJTRp-4ELaG-285">
          <mxGeometry width="30" height="30" as="geometry" />
        </mxCell>
        <mxCell id="D8TExDitwnJTRp-4ELaG-287" value="CON_OI_ID, /* 交互订单项ID */" style="shape=partialRectangle;connectable=0;fillColor=none;top=0;left=0;bottom=0;right=0;align=left;spacingLeft=6;overflow=hidden;" vertex="1" parent="D8TExDitwnJTRp-4ELaG-285">
          <mxGeometry x="30" width="280" height="30" as="geometry" />
        </mxCell>
        <mxCell id="D8TExDitwnJTRp-4ELaG-288" style="shape=partialRectangle;collapsible=0;dropTarget=0;pointerEvents=0;fillColor=none;top=0;left=0;bottom=0;right=0;points=[[0,0.5],[1,0.5]];portConstraint=eastwest;" vertex="1" parent="D8TExDitwnJTRp-4ELaG-254">
          <mxGeometry y="390" width="310" height="30" as="geometry" />
        </mxCell>
        <mxCell id="D8TExDitwnJTRp-4ELaG-289" style="shape=partialRectangle;connectable=0;fillColor=none;top=0;left=0;bottom=0;right=0;editable=1;overflow=hidden;" vertex="1" parent="D8TExDitwnJTRp-4ELaG-288">
          <mxGeometry width="30" height="30" as="geometry" />
        </mxCell>
        <mxCell id="D8TExDitwnJTRp-4ELaG-290" value="ORDER_ID, /*  订单ID  */" style="shape=partialRectangle;connectable=0;fillColor=none;top=0;left=0;bottom=0;right=0;align=left;spacingLeft=6;overflow=hidden;" vertex="1" parent="D8TExDitwnJTRp-4ELaG-288">
          <mxGeometry x="30" width="280" height="30" as="geometry" />
        </mxCell>
        <mxCell id="D8TExDitwnJTRp-4ELaG-291" style="shape=partialRectangle;collapsible=0;dropTarget=0;pointerEvents=0;fillColor=none;top=0;left=0;bottom=0;right=0;points=[[0,0.5],[1,0.5]];portConstraint=eastwest;" vertex="1" parent="D8TExDitwnJTRp-4ELaG-254">
          <mxGeometry y="420" width="310" height="30" as="geometry" />
        </mxCell>
        <mxCell id="D8TExDitwnJTRp-4ELaG-292" style="shape=partialRectangle;connectable=0;fillColor=none;top=0;left=0;bottom=0;right=0;editable=1;overflow=hidden;" vertex="1" parent="D8TExDitwnJTRp-4ELaG-291">
          <mxGeometry width="30" height="30" as="geometry" />
        </mxCell>
        <mxCell id="D8TExDitwnJTRp-4ELaG-293" value="EXECU_AREA_ID, /* 执行地区ID  */" style="shape=partialRectangle;connectable=0;fillColor=none;top=0;left=0;bottom=0;right=0;align=left;spacingLeft=6;overflow=hidden;" vertex="1" parent="D8TExDitwnJTRp-4ELaG-291">
          <mxGeometry x="30" width="280" height="30" as="geometry" />
        </mxCell>
        <mxCell id="D8TExDitwnJTRp-4ELaG-294" style="shape=partialRectangle;collapsible=0;dropTarget=0;pointerEvents=0;fillColor=none;top=0;left=0;bottom=0;right=0;points=[[0,0.5],[1,0.5]];portConstraint=eastwest;" vertex="1" parent="D8TExDitwnJTRp-4ELaG-254">
          <mxGeometry y="450" width="310" height="30" as="geometry" />
        </mxCell>
        <mxCell id="D8TExDitwnJTRp-4ELaG-295" style="shape=partialRectangle;connectable=0;fillColor=none;top=0;left=0;bottom=0;right=0;editable=1;overflow=hidden;" vertex="1" parent="D8TExDitwnJTRp-4ELaG-294">
          <mxGeometry width="30" height="30" as="geometry" />
        </mxCell>
        <mxCell id="D8TExDitwnJTRp-4ELaG-296" value="BUSI_REP_ID, /* 签约方业务代表角色实例ID(cs_not_det) */" style="shape=partialRectangle;connectable=0;fillColor=none;top=0;left=0;bottom=0;right=0;align=left;spacingLeft=6;overflow=hidden;" vertex="1" parent="D8TExDitwnJTRp-4ELaG-294">
          <mxGeometry x="30" width="280" height="30" as="geometry" />
        </mxCell>
        <mxCell id="D8TExDitwnJTRp-4ELaG-297" style="shape=partialRectangle;collapsible=0;dropTarget=0;pointerEvents=0;fillColor=none;top=0;left=0;bottom=0;right=0;points=[[0,0.5],[1,0.5]];portConstraint=eastwest;" vertex="1" parent="D8TExDitwnJTRp-4ELaG-254">
          <mxGeometry y="480" width="310" height="40" as="geometry" />
        </mxCell>
        <mxCell id="D8TExDitwnJTRp-4ELaG-298" style="shape=partialRectangle;connectable=0;fillColor=none;top=0;left=0;bottom=0;right=0;editable=1;overflow=hidden;" vertex="1" parent="D8TExDitwnJTRp-4ELaG-297">
          <mxGeometry width="30" height="40" as="geometry" />
        </mxCell>
        <mxCell id="D8TExDitwnJTRp-4ELaG-299" value="RECV_BUSI_INTO_USER_ROLE_ID, /* 接单方业务代表角色实例ID(cs_not_det) */" style="shape=partialRectangle;connectable=0;fillColor=none;top=0;left=0;bottom=0;right=0;align=left;spacingLeft=6;overflow=hidden;" vertex="1" parent="D8TExDitwnJTRp-4ELaG-297">
          <mxGeometry x="30" width="280" height="40" as="geometry" />
        </mxCell>
        <mxCell id="D8TExDitwnJTRp-4ELaG-303" style="shape=partialRectangle;collapsible=0;dropTarget=0;pointerEvents=0;fillColor=none;top=0;left=0;bottom=0;right=0;points=[[0,0.5],[1,0.5]];portConstraint=eastwest;" vertex="1" parent="D8TExDitwnJTRp-4ELaG-254">
          <mxGeometry y="520" width="310" height="30" as="geometry" />
        </mxCell>
        <mxCell id="D8TExDitwnJTRp-4ELaG-304" style="shape=partialRectangle;connectable=0;fillColor=none;top=0;left=0;bottom=0;right=0;editable=1;overflow=hidden;" vertex="1" parent="D8TExDitwnJTRp-4ELaG-303">
          <mxGeometry width="30" height="30" as="geometry" />
        </mxCell>
        <mxCell id="D8TExDitwnJTRp-4ELaG-305" value="" style="shape=partialRectangle;connectable=0;fillColor=none;top=0;left=0;bottom=0;right=0;align=left;spacingLeft=6;overflow=hidden;" vertex="1" parent="D8TExDitwnJTRp-4ELaG-303">
          <mxGeometry x="30" width="280" height="30" as="geometry" />
        </mxCell>
        <mxCell id="D8TExDitwnJTRp-4ELaG-306" style="shape=partialRectangle;collapsible=0;dropTarget=0;pointerEvents=0;fillColor=none;top=0;left=0;bottom=0;right=0;points=[[0,0.5],[1,0.5]];portConstraint=eastwest;" vertex="1" parent="D8TExDitwnJTRp-4ELaG-254">
          <mxGeometry y="550" width="310" height="30" as="geometry" />
        </mxCell>
        <mxCell id="D8TExDitwnJTRp-4ELaG-307" style="shape=partialRectangle;connectable=0;fillColor=none;top=0;left=0;bottom=0;right=0;editable=1;overflow=hidden;" vertex="1" parent="D8TExDitwnJTRp-4ELaG-306">
          <mxGeometry width="30" height="30" as="geometry" />
        </mxCell>
        <mxCell id="D8TExDitwnJTRp-4ELaG-308" value="" style="shape=partialRectangle;connectable=0;fillColor=none;top=0;left=0;bottom=0;right=0;align=left;spacingLeft=6;overflow=hidden;" vertex="1" parent="D8TExDitwnJTRp-4ELaG-306">
          <mxGeometry x="30" width="280" height="30" as="geometry" />
        </mxCell>
        <mxCell id="D8TExDitwnJTRp-4ELaG-309" value="CS_PAY_NOT" style="shape=table;startSize=30;container=1;collapsible=1;childLayout=tableLayout;fixedRows=1;rowLines=0;fontStyle=1;align=center;resizeLast=1;" vertex="1" parent="1">
          <mxGeometry x="-40" y="320" width="240" height="590" as="geometry" />
        </mxCell>
        <mxCell id="D8TExDitwnJTRp-4ELaG-310" value="" style="shape=partialRectangle;collapsible=0;dropTarget=0;pointerEvents=0;fillColor=none;top=0;left=0;bottom=1;right=0;points=[[0,0.5],[1,0.5]];portConstraint=eastwest;" vertex="1" parent="D8TExDitwnJTRp-4ELaG-309">
          <mxGeometry y="30" width="240" height="30" as="geometry" />
        </mxCell>
        <mxCell id="D8TExDitwnJTRp-4ELaG-311" value="PK" style="shape=partialRectangle;connectable=0;fillColor=none;top=0;left=0;bottom=0;right=0;fontStyle=1;overflow=hidden;" vertex="1" parent="D8TExDitwnJTRp-4ELaG-310">
          <mxGeometry width="30" height="30" as="geometry" />
        </mxCell>
        <mxCell id="D8TExDitwnJTRp-4ELaG-312" value="PAY_NOT_ID" style="shape=partialRectangle;connectable=0;fillColor=none;top=0;left=0;bottom=0;right=0;align=left;spacingLeft=6;fontStyle=5;overflow=hidden;" vertex="1" parent="D8TExDitwnJTRp-4ELaG-310">
          <mxGeometry x="30" width="210" height="30" as="geometry" />
        </mxCell>
        <mxCell id="D8TExDitwnJTRp-4ELaG-313" value="" style="shape=partialRectangle;collapsible=0;dropTarget=0;pointerEvents=0;fillColor=none;top=0;left=0;bottom=0;right=0;points=[[0,0.5],[1,0.5]];portConstraint=eastwest;" vertex="1" parent="D8TExDitwnJTRp-4ELaG-309">
          <mxGeometry y="60" width="240" height="30" as="geometry" />
        </mxCell>
        <mxCell id="D8TExDitwnJTRp-4ELaG-314" value="" style="shape=partialRectangle;connectable=0;fillColor=none;top=0;left=0;bottom=0;right=0;editable=1;overflow=hidden;" vertex="1" parent="D8TExDitwnJTRp-4ELaG-313">
          <mxGeometry width="30" height="30" as="geometry" />
        </mxCell>
        <mxCell id="D8TExDitwnJTRp-4ELaG-315" value="PAY_NOT_NO, /*  账单编号  */" style="shape=partialRectangle;connectable=0;fillColor=none;top=0;left=0;bottom=0;right=0;align=left;spacingLeft=6;overflow=hidden;" vertex="1" parent="D8TExDitwnJTRp-4ELaG-313">
          <mxGeometry x="30" width="210" height="30" as="geometry" />
        </mxCell>
        <mxCell id="D8TExDitwnJTRp-4ELaG-316" value="" style="shape=partialRectangle;collapsible=0;dropTarget=0;pointerEvents=0;fillColor=none;top=0;left=0;bottom=0;right=0;points=[[0,0.5],[1,0.5]];portConstraint=eastwest;" vertex="1" parent="D8TExDitwnJTRp-4ELaG-309">
          <mxGeometry y="90" width="240" height="30" as="geometry" />
        </mxCell>
        <mxCell id="D8TExDitwnJTRp-4ELaG-317" value="" style="shape=partialRectangle;connectable=0;fillColor=none;top=0;left=0;bottom=0;right=0;editable=1;overflow=hidden;" vertex="1" parent="D8TExDitwnJTRp-4ELaG-316">
          <mxGeometry width="30" height="30" as="geometry" />
        </mxCell>
        <mxCell id="D8TExDitwnJTRp-4ELaG-318" value="CHA_TAG, /*  收费标记(cs_pay_not)  */" style="shape=partialRectangle;connectable=0;fillColor=none;top=0;left=0;bottom=0;right=0;align=left;spacingLeft=6;overflow=hidden;" vertex="1" parent="D8TExDitwnJTRp-4ELaG-316">
          <mxGeometry x="30" width="210" height="30" as="geometry" />
        </mxCell>
        <mxCell id="D8TExDitwnJTRp-4ELaG-319" value="" style="shape=partialRectangle;collapsible=0;dropTarget=0;pointerEvents=0;fillColor=none;top=0;left=0;bottom=0;right=0;points=[[0,0.5],[1,0.5]];portConstraint=eastwest;" vertex="1" parent="D8TExDitwnJTRp-4ELaG-309">
          <mxGeometry y="120" width="240" height="30" as="geometry" />
        </mxCell>
        <mxCell id="D8TExDitwnJTRp-4ELaG-320" value="" style="shape=partialRectangle;connectable=0;fillColor=none;top=0;left=0;bottom=0;right=0;editable=1;overflow=hidden;" vertex="1" parent="D8TExDitwnJTRp-4ELaG-319">
          <mxGeometry width="30" height="30" as="geometry" />
        </mxCell>
        <mxCell id="D8TExDitwnJTRp-4ELaG-321" value="INV_TAG" style="shape=partialRectangle;connectable=0;fillColor=none;top=0;left=0;bottom=0;right=0;align=left;spacingLeft=6;overflow=hidden;" vertex="1" parent="D8TExDitwnJTRp-4ELaG-319">
          <mxGeometry x="30" width="210" height="30" as="geometry" />
        </mxCell>
        <mxCell id="D8TExDitwnJTRp-4ELaG-322" style="shape=partialRectangle;collapsible=0;dropTarget=0;pointerEvents=0;fillColor=none;top=0;left=0;bottom=0;right=0;points=[[0,0.5],[1,0.5]];portConstraint=eastwest;" vertex="1" parent="D8TExDitwnJTRp-4ELaG-309">
          <mxGeometry y="150" width="240" height="30" as="geometry" />
        </mxCell>
        <mxCell id="D8TExDitwnJTRp-4ELaG-323" style="shape=partialRectangle;connectable=0;fillColor=none;top=0;left=0;bottom=0;right=0;editable=1;overflow=hidden;" vertex="1" parent="D8TExDitwnJTRp-4ELaG-322">
          <mxGeometry width="30" height="30" as="geometry" />
        </mxCell>
        <mxCell id="D8TExDitwnJTRp-4ELaG-324" value="INV_NO, /*  发票号(fm_cha_pri_inv) */" style="shape=partialRectangle;connectable=0;fillColor=none;top=0;left=0;bottom=0;right=0;align=left;spacingLeft=6;overflow=hidden;" vertex="1" parent="D8TExDitwnJTRp-4ELaG-322">
          <mxGeometry x="30" width="210" height="30" as="geometry" />
        </mxCell>
        <mxCell id="D8TExDitwnJTRp-4ELaG-325" style="shape=partialRectangle;collapsible=0;dropTarget=0;pointerEvents=0;fillColor=none;top=0;left=0;bottom=0;right=0;points=[[0,0.5],[1,0.5]];portConstraint=eastwest;" vertex="1" parent="D8TExDitwnJTRp-4ELaG-309">
          <mxGeometry y="180" width="240" height="30" as="geometry" />
        </mxCell>
        <mxCell id="D8TExDitwnJTRp-4ELaG-326" style="shape=partialRectangle;connectable=0;fillColor=none;top=0;left=0;bottom=0;right=0;editable=1;overflow=hidden;" vertex="1" parent="D8TExDitwnJTRp-4ELaG-325">
          <mxGeometry width="30" height="30" as="geometry" />
        </mxCell>
        <mxCell id="D8TExDitwnJTRp-4ELaG-327" value=".REMI_GET_ID, /* 汇款认领ID（cs_pay_not）  */" style="shape=partialRectangle;connectable=0;fillColor=none;top=0;left=0;bottom=0;right=0;align=left;spacingLeft=6;overflow=hidden;" vertex="1" parent="D8TExDitwnJTRp-4ELaG-325">
          <mxGeometry x="30" width="210" height="30" as="geometry" />
        </mxCell>
        <mxCell id="D8TExDitwnJTRp-4ELaG-328" style="shape=partialRectangle;collapsible=0;dropTarget=0;pointerEvents=0;fillColor=none;top=0;left=0;bottom=0;right=0;points=[[0,0.5],[1,0.5]];portConstraint=eastwest;" vertex="1" parent="D8TExDitwnJTRp-4ELaG-309">
          <mxGeometry y="210" width="240" height="40" as="geometry" />
        </mxCell>
        <mxCell id="D8TExDitwnJTRp-4ELaG-329" style="shape=partialRectangle;connectable=0;fillColor=none;top=0;left=0;bottom=0;right=0;editable=1;overflow=hidden;" vertex="1" parent="D8TExDitwnJTRp-4ELaG-328">
          <mxGeometry width="30" height="40" as="geometry" />
        </mxCell>
        <mxCell id="D8TExDitwnJTRp-4ELaG-330" value="INV_UNIT_NAME" style="shape=partialRectangle;connectable=0;fillColor=none;top=0;left=0;bottom=0;right=0;align=left;spacingLeft=6;overflow=hidden;" vertex="1" parent="D8TExDitwnJTRp-4ELaG-328">
          <mxGeometry x="30" width="210" height="40" as="geometry" />
        </mxCell>
        <mxCell id="D8TExDitwnJTRp-4ELaG-331" style="shape=partialRectangle;collapsible=0;dropTarget=0;pointerEvents=0;fillColor=none;top=0;left=0;bottom=0;right=0;points=[[0,0.5],[1,0.5]];portConstraint=eastwest;" vertex="1" parent="D8TExDitwnJTRp-4ELaG-309">
          <mxGeometry y="250" width="240" height="30" as="geometry" />
        </mxCell>
        <mxCell id="D8TExDitwnJTRp-4ELaG-332" style="shape=partialRectangle;connectable=0;fillColor=none;top=0;left=0;bottom=0;right=0;editable=1;overflow=hidden;" vertex="1" parent="D8TExDitwnJTRp-4ELaG-331">
          <mxGeometry width="30" height="30" as="geometry" />
        </mxCell>
        <mxCell id="D8TExDitwnJTRp-4ELaG-333" value="" style="shape=partialRectangle;connectable=0;fillColor=none;top=0;left=0;bottom=0;right=0;align=left;spacingLeft=6;overflow=hidden;" vertex="1" parent="D8TExDitwnJTRp-4ELaG-331">
          <mxGeometry x="30" width="210" height="30" as="geometry" />
        </mxCell>
        <mxCell id="D8TExDitwnJTRp-4ELaG-334" style="shape=partialRectangle;collapsible=0;dropTarget=0;pointerEvents=0;fillColor=none;top=0;left=0;bottom=0;right=0;points=[[0,0.5],[1,0.5]];portConstraint=eastwest;" vertex="1" parent="D8TExDitwnJTRp-4ELaG-309">
          <mxGeometry y="280" width="240" height="30" as="geometry" />
        </mxCell>
        <mxCell id="D8TExDitwnJTRp-4ELaG-335" style="shape=partialRectangle;connectable=0;fillColor=none;top=0;left=0;bottom=0;right=0;editable=1;overflow=hidden;" vertex="1" parent="D8TExDitwnJTRp-4ELaG-334">
          <mxGeometry width="30" height="30" as="geometry" />
        </mxCell>
        <mxCell id="D8TExDitwnJTRp-4ELaG-336" value="" style="shape=partialRectangle;connectable=0;fillColor=none;top=0;left=0;bottom=0;right=0;align=left;spacingLeft=6;overflow=hidden;" vertex="1" parent="D8TExDitwnJTRp-4ELaG-334">
          <mxGeometry x="30" width="210" height="30" as="geometry" />
        </mxCell>
        <mxCell id="D8TExDitwnJTRp-4ELaG-337" style="shape=partialRectangle;collapsible=0;dropTarget=0;pointerEvents=0;fillColor=none;top=0;left=0;bottom=0;right=0;points=[[0,0.5],[1,0.5]];portConstraint=eastwest;" vertex="1" parent="D8TExDitwnJTRp-4ELaG-309">
          <mxGeometry y="310" width="240" height="30" as="geometry" />
        </mxCell>
        <mxCell id="D8TExDitwnJTRp-4ELaG-338" style="shape=partialRectangle;connectable=0;fillColor=none;top=0;left=0;bottom=0;right=0;editable=1;overflow=hidden;" vertex="1" parent="D8TExDitwnJTRp-4ELaG-337">
          <mxGeometry width="30" height="30" as="geometry" />
        </mxCell>
        <mxCell id="D8TExDitwnJTRp-4ELaG-339" value="" style="shape=partialRectangle;connectable=0;fillColor=none;top=0;left=0;bottom=0;right=0;align=left;spacingLeft=6;overflow=hidden;" vertex="1" parent="D8TExDitwnJTRp-4ELaG-337">
          <mxGeometry x="30" width="210" height="30" as="geometry" />
        </mxCell>
        <mxCell id="D8TExDitwnJTRp-4ELaG-340" style="shape=partialRectangle;collapsible=0;dropTarget=0;pointerEvents=0;fillColor=none;top=0;left=0;bottom=0;right=0;points=[[0,0.5],[1,0.5]];portConstraint=eastwest;" vertex="1" parent="D8TExDitwnJTRp-4ELaG-309">
          <mxGeometry y="340" width="240" height="30" as="geometry" />
        </mxCell>
        <mxCell id="D8TExDitwnJTRp-4ELaG-341" style="shape=partialRectangle;connectable=0;fillColor=none;top=0;left=0;bottom=0;right=0;editable=1;overflow=hidden;" vertex="1" parent="D8TExDitwnJTRp-4ELaG-340">
          <mxGeometry width="30" height="30" as="geometry" />
        </mxCell>
        <mxCell id="D8TExDitwnJTRp-4ELaG-342" value="" style="shape=partialRectangle;connectable=0;fillColor=none;top=0;left=0;bottom=0;right=0;align=left;spacingLeft=6;overflow=hidden;" vertex="1" parent="D8TExDitwnJTRp-4ELaG-340">
          <mxGeometry x="30" width="210" height="30" as="geometry" />
        </mxCell>
        <mxCell id="D8TExDitwnJTRp-4ELaG-343" style="shape=partialRectangle;collapsible=0;dropTarget=0;pointerEvents=0;fillColor=none;top=0;left=0;bottom=0;right=0;points=[[0,0.5],[1,0.5]];portConstraint=eastwest;" vertex="1" parent="D8TExDitwnJTRp-4ELaG-309">
          <mxGeometry y="370" width="240" height="30" as="geometry" />
        </mxCell>
        <mxCell id="D8TExDitwnJTRp-4ELaG-344" style="shape=partialRectangle;connectable=0;fillColor=none;top=0;left=0;bottom=0;right=0;editable=1;overflow=hidden;" vertex="1" parent="D8TExDitwnJTRp-4ELaG-343">
          <mxGeometry width="30" height="30" as="geometry" />
        </mxCell>
        <mxCell id="D8TExDitwnJTRp-4ELaG-345" value="" style="shape=partialRectangle;connectable=0;fillColor=none;top=0;left=0;bottom=0;right=0;align=left;spacingLeft=6;overflow=hidden;" vertex="1" parent="D8TExDitwnJTRp-4ELaG-343">
          <mxGeometry x="30" width="210" height="30" as="geometry" />
        </mxCell>
        <mxCell id="D8TExDitwnJTRp-4ELaG-346" style="shape=partialRectangle;collapsible=0;dropTarget=0;pointerEvents=0;fillColor=none;top=0;left=0;bottom=0;right=0;points=[[0,0.5],[1,0.5]];portConstraint=eastwest;" vertex="1" parent="D8TExDitwnJTRp-4ELaG-309">
          <mxGeometry y="400" width="240" height="30" as="geometry" />
        </mxCell>
        <mxCell id="D8TExDitwnJTRp-4ELaG-347" style="shape=partialRectangle;connectable=0;fillColor=none;top=0;left=0;bottom=0;right=0;editable=1;overflow=hidden;" vertex="1" parent="D8TExDitwnJTRp-4ELaG-346">
          <mxGeometry width="30" height="30" as="geometry" />
        </mxCell>
        <mxCell id="D8TExDitwnJTRp-4ELaG-348" value="" style="shape=partialRectangle;connectable=0;fillColor=none;top=0;left=0;bottom=0;right=0;align=left;spacingLeft=6;overflow=hidden;" vertex="1" parent="D8TExDitwnJTRp-4ELaG-346">
          <mxGeometry x="30" width="210" height="30" as="geometry" />
        </mxCell>
        <mxCell id="D8TExDitwnJTRp-4ELaG-349" style="shape=partialRectangle;collapsible=0;dropTarget=0;pointerEvents=0;fillColor=none;top=0;left=0;bottom=0;right=0;points=[[0,0.5],[1,0.5]];portConstraint=eastwest;" vertex="1" parent="D8TExDitwnJTRp-4ELaG-309">
          <mxGeometry y="430" width="240" height="30" as="geometry" />
        </mxCell>
        <mxCell id="D8TExDitwnJTRp-4ELaG-350" style="shape=partialRectangle;connectable=0;fillColor=none;top=0;left=0;bottom=0;right=0;editable=1;overflow=hidden;" vertex="1" parent="D8TExDitwnJTRp-4ELaG-349">
          <mxGeometry width="30" height="30" as="geometry" />
        </mxCell>
        <mxCell id="D8TExDitwnJTRp-4ELaG-351" style="shape=partialRectangle;connectable=0;fillColor=none;top=0;left=0;bottom=0;right=0;align=left;spacingLeft=6;overflow=hidden;" vertex="1" parent="D8TExDitwnJTRp-4ELaG-349">
          <mxGeometry x="30" width="210" height="30" as="geometry" />
        </mxCell>
        <mxCell id="D8TExDitwnJTRp-4ELaG-352" style="shape=partialRectangle;collapsible=0;dropTarget=0;pointerEvents=0;fillColor=none;top=0;left=0;bottom=0;right=0;points=[[0,0.5],[1,0.5]];portConstraint=eastwest;" vertex="1" parent="D8TExDitwnJTRp-4ELaG-309">
          <mxGeometry y="460" width="240" height="30" as="geometry" />
        </mxCell>
        <mxCell id="D8TExDitwnJTRp-4ELaG-353" style="shape=partialRectangle;connectable=0;fillColor=none;top=0;left=0;bottom=0;right=0;editable=1;overflow=hidden;" vertex="1" parent="D8TExDitwnJTRp-4ELaG-352">
          <mxGeometry width="30" height="30" as="geometry" />
        </mxCell>
        <mxCell id="D8TExDitwnJTRp-4ELaG-354" style="shape=partialRectangle;connectable=0;fillColor=none;top=0;left=0;bottom=0;right=0;align=left;spacingLeft=6;overflow=hidden;" vertex="1" parent="D8TExDitwnJTRp-4ELaG-352">
          <mxGeometry x="30" width="210" height="30" as="geometry" />
        </mxCell>
        <mxCell id="D8TExDitwnJTRp-4ELaG-355" style="shape=partialRectangle;collapsible=0;dropTarget=0;pointerEvents=0;fillColor=none;top=0;left=0;bottom=0;right=0;points=[[0,0.5],[1,0.5]];portConstraint=eastwest;" vertex="1" parent="D8TExDitwnJTRp-4ELaG-309">
          <mxGeometry y="490" width="240" height="30" as="geometry" />
        </mxCell>
        <mxCell id="D8TExDitwnJTRp-4ELaG-356" style="shape=partialRectangle;connectable=0;fillColor=none;top=0;left=0;bottom=0;right=0;editable=1;overflow=hidden;" vertex="1" parent="D8TExDitwnJTRp-4ELaG-355">
          <mxGeometry width="30" height="30" as="geometry" />
        </mxCell>
        <mxCell id="D8TExDitwnJTRp-4ELaG-357" style="shape=partialRectangle;connectable=0;fillColor=none;top=0;left=0;bottom=0;right=0;align=left;spacingLeft=6;overflow=hidden;" vertex="1" parent="D8TExDitwnJTRp-4ELaG-355">
          <mxGeometry x="30" width="210" height="30" as="geometry" />
        </mxCell>
        <mxCell id="D8TExDitwnJTRp-4ELaG-358" style="shape=partialRectangle;collapsible=0;dropTarget=0;pointerEvents=0;fillColor=none;top=0;left=0;bottom=0;right=0;points=[[0,0.5],[1,0.5]];portConstraint=eastwest;" vertex="1" parent="D8TExDitwnJTRp-4ELaG-309">
          <mxGeometry y="520" width="240" height="30" as="geometry" />
        </mxCell>
        <mxCell id="D8TExDitwnJTRp-4ELaG-359" style="shape=partialRectangle;connectable=0;fillColor=none;top=0;left=0;bottom=0;right=0;editable=1;overflow=hidden;" vertex="1" parent="D8TExDitwnJTRp-4ELaG-358">
          <mxGeometry width="30" height="30" as="geometry" />
        </mxCell>
        <mxCell id="D8TExDitwnJTRp-4ELaG-360" value="" style="shape=partialRectangle;connectable=0;fillColor=none;top=0;left=0;bottom=0;right=0;align=left;spacingLeft=6;overflow=hidden;" vertex="1" parent="D8TExDitwnJTRp-4ELaG-358">
          <mxGeometry x="30" width="210" height="30" as="geometry" />
        </mxCell>
        <mxCell id="D8TExDitwnJTRp-4ELaG-361" style="shape=partialRectangle;collapsible=0;dropTarget=0;pointerEvents=0;fillColor=none;top=0;left=0;bottom=0;right=0;points=[[0,0.5],[1,0.5]];portConstraint=eastwest;" vertex="1" parent="D8TExDitwnJTRp-4ELaG-309">
          <mxGeometry y="550" width="240" height="30" as="geometry" />
        </mxCell>
        <mxCell id="D8TExDitwnJTRp-4ELaG-362" style="shape=partialRectangle;connectable=0;fillColor=none;top=0;left=0;bottom=0;right=0;editable=1;overflow=hidden;" vertex="1" parent="D8TExDitwnJTRp-4ELaG-361">
          <mxGeometry width="30" height="30" as="geometry" />
        </mxCell>
        <mxCell id="D8TExDitwnJTRp-4ELaG-363" style="shape=partialRectangle;connectable=0;fillColor=none;top=0;left=0;bottom=0;right=0;align=left;spacingLeft=6;overflow=hidden;" vertex="1" parent="D8TExDitwnJTRp-4ELaG-361">
          <mxGeometry x="30" width="210" height="30" as="geometry" />
        </mxCell>
        <mxCell id="D8TExDitwnJTRp-4ELaG-190" value="FM_CHA_PRI_INV" style="shape=table;startSize=30;container=1;collapsible=1;childLayout=tableLayout;fixedRows=1;rowLines=0;fontStyle=1;align=center;resizeLast=1;" vertex="1" parent="1">
          <mxGeometry x="740" y="1040" width="220" height="270" as="geometry" />
        </mxCell>
        <mxCell id="D8TExDitwnJTRp-4ELaG-191" value="" style="shape=partialRectangle;collapsible=0;dropTarget=0;pointerEvents=0;fillColor=none;top=0;left=0;bottom=1;right=0;points=[[0,0.5],[1,0.5]];portConstraint=eastwest;" vertex="1" parent="D8TExDitwnJTRp-4ELaG-190">
          <mxGeometry y="30" width="220" height="30" as="geometry" />
        </mxCell>
        <mxCell id="D8TExDitwnJTRp-4ELaG-192" value="PK" style="shape=partialRectangle;connectable=0;fillColor=none;top=0;left=0;bottom=0;right=0;fontStyle=1;overflow=hidden;" vertex="1" parent="D8TExDitwnJTRp-4ELaG-191">
          <mxGeometry width="30" height="30" as="geometry" />
        </mxCell>
        <mxCell id="D8TExDitwnJTRp-4ELaG-193" value="INV_ID" style="shape=partialRectangle;connectable=0;fillColor=none;top=0;left=0;bottom=0;right=0;align=left;spacingLeft=6;fontStyle=5;overflow=hidden;" vertex="1" parent="D8TExDitwnJTRp-4ELaG-191">
          <mxGeometry x="30" width="190" height="30" as="geometry" />
        </mxCell>
        <mxCell id="D8TExDitwnJTRp-4ELaG-236" style="shape=partialRectangle;collapsible=0;dropTarget=0;pointerEvents=0;fillColor=none;top=0;left=0;bottom=0;right=0;points=[[0,0.5],[1,0.5]];portConstraint=eastwest;" vertex="1" parent="D8TExDitwnJTRp-4ELaG-190">
          <mxGeometry y="60" width="220" height="30" as="geometry" />
        </mxCell>
        <mxCell id="D8TExDitwnJTRp-4ELaG-237" style="shape=partialRectangle;connectable=0;fillColor=none;top=0;left=0;bottom=0;right=0;editable=1;overflow=hidden;" vertex="1" parent="D8TExDitwnJTRp-4ELaG-236">
          <mxGeometry width="30" height="30" as="geometry" />
        </mxCell>
        <mxCell id="D8TExDitwnJTRp-4ELaG-238" value="CS_CHA_NOT_ID" style="shape=partialRectangle;connectable=0;fillColor=none;top=0;left=0;bottom=0;right=0;align=left;spacingLeft=6;overflow=hidden;" vertex="1" parent="D8TExDitwnJTRp-4ELaG-236">
          <mxGeometry x="30" width="190" height="30" as="geometry" />
        </mxCell>
        <mxCell id="D8TExDitwnJTRp-4ELaG-194" value="" style="shape=partialRectangle;collapsible=0;dropTarget=0;pointerEvents=0;fillColor=none;top=0;left=0;bottom=0;right=0;points=[[0,0.5],[1,0.5]];portConstraint=eastwest;" vertex="1" parent="D8TExDitwnJTRp-4ELaG-190">
          <mxGeometry y="90" width="220" height="30" as="geometry" />
        </mxCell>
        <mxCell id="D8TExDitwnJTRp-4ELaG-195" value="" style="shape=partialRectangle;connectable=0;fillColor=none;top=0;left=0;bottom=0;right=0;editable=1;overflow=hidden;" vertex="1" parent="D8TExDitwnJTRp-4ELaG-194">
          <mxGeometry width="30" height="30" as="geometry" />
        </mxCell>
        <mxCell id="D8TExDitwnJTRp-4ELaG-196" value="OPE_TIME" style="shape=partialRectangle;connectable=0;fillColor=none;top=0;left=0;bottom=0;right=0;align=left;spacingLeft=6;overflow=hidden;" vertex="1" parent="D8TExDitwnJTRp-4ELaG-194">
          <mxGeometry x="30" width="190" height="30" as="geometry" />
        </mxCell>
        <mxCell id="D8TExDitwnJTRp-4ELaG-197" value="" style="shape=partialRectangle;collapsible=0;dropTarget=0;pointerEvents=0;fillColor=none;top=0;left=0;bottom=0;right=0;points=[[0,0.5],[1,0.5]];portConstraint=eastwest;" vertex="1" parent="D8TExDitwnJTRp-4ELaG-190">
          <mxGeometry y="120" width="220" height="30" as="geometry" />
        </mxCell>
        <mxCell id="D8TExDitwnJTRp-4ELaG-198" value="" style="shape=partialRectangle;connectable=0;fillColor=none;top=0;left=0;bottom=0;right=0;editable=1;overflow=hidden;" vertex="1" parent="D8TExDitwnJTRp-4ELaG-197">
          <mxGeometry width="30" height="30" as="geometry" />
        </mxCell>
        <mxCell id="D8TExDitwnJTRp-4ELaG-199" value="OPE_ID, /*--41制单人ID(fm_cha_pri_inv)*/" style="shape=partialRectangle;connectable=0;fillColor=none;top=0;left=0;bottom=0;right=0;align=left;spacingLeft=6;overflow=hidden;" vertex="1" parent="D8TExDitwnJTRp-4ELaG-197">
          <mxGeometry x="30" width="190" height="30" as="geometry" />
        </mxCell>
        <mxCell id="D8TExDitwnJTRp-4ELaG-200" value="" style="shape=partialRectangle;collapsible=0;dropTarget=0;pointerEvents=0;fillColor=none;top=0;left=0;bottom=0;right=0;points=[[0,0.5],[1,0.5]];portConstraint=eastwest;" vertex="1" parent="D8TExDitwnJTRp-4ELaG-190">
          <mxGeometry y="150" width="220" height="30" as="geometry" />
        </mxCell>
        <mxCell id="D8TExDitwnJTRp-4ELaG-201" value="" style="shape=partialRectangle;connectable=0;fillColor=none;top=0;left=0;bottom=0;right=0;editable=1;overflow=hidden;" vertex="1" parent="D8TExDitwnJTRp-4ELaG-200">
          <mxGeometry width="30" height="30" as="geometry" />
        </mxCell>
        <mxCell id="D8TExDitwnJTRp-4ELaG-202" value="NOT_OR_INS" style="shape=partialRectangle;connectable=0;fillColor=none;top=0;left=0;bottom=0;right=0;align=left;spacingLeft=6;overflow=hidden;" vertex="1" parent="D8TExDitwnJTRp-4ELaG-200">
          <mxGeometry x="30" width="190" height="30" as="geometry" />
        </mxCell>
        <mxCell id="D8TExDitwnJTRp-4ELaG-242" style="shape=partialRectangle;collapsible=0;dropTarget=0;pointerEvents=0;fillColor=none;top=0;left=0;bottom=0;right=0;points=[[0,0.5],[1,0.5]];portConstraint=eastwest;" vertex="1" parent="D8TExDitwnJTRp-4ELaG-190">
          <mxGeometry y="180" width="220" height="30" as="geometry" />
        </mxCell>
        <mxCell id="D8TExDitwnJTRp-4ELaG-243" style="shape=partialRectangle;connectable=0;fillColor=none;top=0;left=0;bottom=0;right=0;editable=1;overflow=hidden;" vertex="1" parent="D8TExDitwnJTRp-4ELaG-242">
          <mxGeometry width="30" height="30" as="geometry" />
        </mxCell>
        <mxCell id="D8TExDitwnJTRp-4ELaG-244" value="IS_CANCEL" style="shape=partialRectangle;connectable=0;fillColor=none;top=0;left=0;bottom=0;right=0;align=left;spacingLeft=6;overflow=hidden;" vertex="1" parent="D8TExDitwnJTRp-4ELaG-242">
          <mxGeometry x="30" width="190" height="30" as="geometry" />
        </mxCell>
        <mxCell id="D8TExDitwnJTRp-4ELaG-239" style="shape=partialRectangle;collapsible=0;dropTarget=0;pointerEvents=0;fillColor=none;top=0;left=0;bottom=0;right=0;points=[[0,0.5],[1,0.5]];portConstraint=eastwest;" vertex="1" parent="D8TExDitwnJTRp-4ELaG-190">
          <mxGeometry y="210" width="220" height="30" as="geometry" />
        </mxCell>
        <mxCell id="D8TExDitwnJTRp-4ELaG-240" style="shape=partialRectangle;connectable=0;fillColor=none;top=0;left=0;bottom=0;right=0;editable=1;overflow=hidden;" vertex="1" parent="D8TExDitwnJTRp-4ELaG-239">
          <mxGeometry width="30" height="30" as="geometry" />
        </mxCell>
        <mxCell id="D8TExDitwnJTRp-4ELaG-241" value="IS_EFFECT" style="shape=partialRectangle;connectable=0;fillColor=none;top=0;left=0;bottom=0;right=0;align=left;spacingLeft=6;overflow=hidden;" vertex="1" parent="D8TExDitwnJTRp-4ELaG-239">
          <mxGeometry x="30" width="190" height="30" as="geometry" />
        </mxCell>
        <mxCell id="D8TExDitwnJTRp-4ELaG-367" style="shape=partialRectangle;collapsible=0;dropTarget=0;pointerEvents=0;fillColor=none;top=0;left=0;bottom=0;right=0;points=[[0,0.5],[1,0.5]];portConstraint=eastwest;" vertex="1" parent="D8TExDitwnJTRp-4ELaG-190">
          <mxGeometry y="240" width="220" height="30" as="geometry" />
        </mxCell>
        <mxCell id="D8TExDitwnJTRp-4ELaG-368" style="shape=partialRectangle;connectable=0;fillColor=none;top=0;left=0;bottom=0;right=0;editable=1;overflow=hidden;" vertex="1" parent="D8TExDitwnJTRp-4ELaG-367">
          <mxGeometry width="30" height="30" as="geometry" />
        </mxCell>
        <mxCell id="D8TExDitwnJTRp-4ELaG-369" value="NOT_OR_INS" style="shape=partialRectangle;connectable=0;fillColor=none;top=0;left=0;bottom=0;right=0;align=left;spacingLeft=6;overflow=hidden;" vertex="1" parent="D8TExDitwnJTRp-4ELaG-367">
          <mxGeometry x="30" width="190" height="30" as="geometry" />
        </mxCell>
        <mxCell id="D8TExDitwnJTRp-4ELaG-177" value="FM_CHA_LOG" style="shape=table;startSize=30;container=1;collapsible=1;childLayout=tableLayout;fixedRows=1;rowLines=0;fontStyle=1;align=center;resizeLast=1;" vertex="1" parent="1">
          <mxGeometry x="1030" y="1040" width="220" height="270" as="geometry" />
        </mxCell>
        <mxCell id="D8TExDitwnJTRp-4ELaG-178" value="" style="shape=partialRectangle;collapsible=0;dropTarget=0;pointerEvents=0;fillColor=none;top=0;left=0;bottom=1;right=0;points=[[0,0.5],[1,0.5]];portConstraint=eastwest;" vertex="1" parent="D8TExDitwnJTRp-4ELaG-177">
          <mxGeometry y="30" width="220" height="30" as="geometry" />
        </mxCell>
        <mxCell id="D8TExDitwnJTRp-4ELaG-179" value="PK" style="shape=partialRectangle;connectable=0;fillColor=none;top=0;left=0;bottom=0;right=0;fontStyle=1;overflow=hidden;" vertex="1" parent="D8TExDitwnJTRp-4ELaG-178">
          <mxGeometry width="30" height="30" as="geometry" />
        </mxCell>
        <mxCell id="D8TExDitwnJTRp-4ELaG-180" value="LOG_ID" style="shape=partialRectangle;connectable=0;fillColor=none;top=0;left=0;bottom=0;right=0;align=left;spacingLeft=6;fontStyle=5;overflow=hidden;" vertex="1" parent="D8TExDitwnJTRp-4ELaG-178">
          <mxGeometry x="30" width="190" height="30" as="geometry" />
        </mxCell>
        <mxCell id="D8TExDitwnJTRp-4ELaG-187" value="" style="shape=partialRectangle;collapsible=0;dropTarget=0;pointerEvents=0;fillColor=none;top=0;left=0;bottom=0;right=0;points=[[0,0.5],[1,0.5]];portConstraint=eastwest;" vertex="1" parent="D8TExDitwnJTRp-4ELaG-177">
          <mxGeometry y="60" width="220" height="30" as="geometry" />
        </mxCell>
        <mxCell id="D8TExDitwnJTRp-4ELaG-188" value="" style="shape=partialRectangle;connectable=0;fillColor=none;top=0;left=0;bottom=0;right=0;editable=1;overflow=hidden;" vertex="1" parent="D8TExDitwnJTRp-4ELaG-187">
          <mxGeometry width="30" height="30" as="geometry" />
        </mxCell>
        <mxCell id="D8TExDitwnJTRp-4ELaG-189" value="CHA_NOT_ID" style="shape=partialRectangle;connectable=0;fillColor=none;top=0;left=0;bottom=0;right=0;align=left;spacingLeft=6;overflow=hidden;" vertex="1" parent="D8TExDitwnJTRp-4ELaG-187">
          <mxGeometry x="30" width="190" height="30" as="geometry" />
        </mxCell>
        <mxCell id="D8TExDitwnJTRp-4ELaG-181" value="" style="shape=partialRectangle;collapsible=0;dropTarget=0;pointerEvents=0;fillColor=none;top=0;left=0;bottom=0;right=0;points=[[0,0.5],[1,0.5]];portConstraint=eastwest;" vertex="1" parent="D8TExDitwnJTRp-4ELaG-177">
          <mxGeometry y="90" width="220" height="30" as="geometry" />
        </mxCell>
        <mxCell id="D8TExDitwnJTRp-4ELaG-182" value="" style="shape=partialRectangle;connectable=0;fillColor=none;top=0;left=0;bottom=0;right=0;editable=1;overflow=hidden;" vertex="1" parent="D8TExDitwnJTRp-4ELaG-181">
          <mxGeometry width="30" height="30" as="geometry" />
        </mxCell>
        <mxCell id="D8TExDitwnJTRp-4ELaG-183" value="LOG_TIME" style="shape=partialRectangle;connectable=0;fillColor=none;top=0;left=0;bottom=0;right=0;align=left;spacingLeft=6;overflow=hidden;" vertex="1" parent="D8TExDitwnJTRp-4ELaG-181">
          <mxGeometry x="30" width="190" height="30" as="geometry" />
        </mxCell>
        <mxCell id="D8TExDitwnJTRp-4ELaG-184" value="" style="shape=partialRectangle;collapsible=0;dropTarget=0;pointerEvents=0;fillColor=none;top=0;left=0;bottom=0;right=0;points=[[0,0.5],[1,0.5]];portConstraint=eastwest;" vertex="1" parent="D8TExDitwnJTRp-4ELaG-177">
          <mxGeometry y="120" width="220" height="30" as="geometry" />
        </mxCell>
        <mxCell id="D8TExDitwnJTRp-4ELaG-185" value="" style="shape=partialRectangle;connectable=0;fillColor=none;top=0;left=0;bottom=0;right=0;editable=1;overflow=hidden;" vertex="1" parent="D8TExDitwnJTRp-4ELaG-184">
          <mxGeometry width="30" height="30" as="geometry" />
        </mxCell>
        <mxCell id="D8TExDitwnJTRp-4ELaG-186" value="CHA_YM /*--36收费年月(fm_cha_log)*/" style="shape=partialRectangle;connectable=0;fillColor=none;top=0;left=0;bottom=0;right=0;align=left;spacingLeft=6;overflow=hidden;" vertex="1" parent="D8TExDitwnJTRp-4ELaG-184">
          <mxGeometry x="30" width="190" height="30" as="geometry" />
        </mxCell>
        <mxCell id="D8TExDitwnJTRp-4ELaG-227" style="shape=partialRectangle;collapsible=0;dropTarget=0;pointerEvents=0;fillColor=none;top=0;left=0;bottom=0;right=0;points=[[0,0.5],[1,0.5]];portConstraint=eastwest;" vertex="1" parent="D8TExDitwnJTRp-4ELaG-177">
          <mxGeometry y="150" width="220" height="30" as="geometry" />
        </mxCell>
        <mxCell id="D8TExDitwnJTRp-4ELaG-228" style="shape=partialRectangle;connectable=0;fillColor=none;top=0;left=0;bottom=0;right=0;editable=1;overflow=hidden;" vertex="1" parent="D8TExDitwnJTRp-4ELaG-227">
          <mxGeometry width="30" height="30" as="geometry" />
        </mxCell>
        <mxCell id="D8TExDitwnJTRp-4ELaG-229" value="NOT_OR_INS" style="shape=partialRectangle;connectable=0;fillColor=none;top=0;left=0;bottom=0;right=0;align=left;spacingLeft=6;overflow=hidden;" vertex="1" parent="D8TExDitwnJTRp-4ELaG-227">
          <mxGeometry x="30" width="190" height="30" as="geometry" />
        </mxCell>
        <mxCell id="D8TExDitwnJTRp-4ELaG-230" style="shape=partialRectangle;collapsible=0;dropTarget=0;pointerEvents=0;fillColor=none;top=0;left=0;bottom=0;right=0;points=[[0,0.5],[1,0.5]];portConstraint=eastwest;" vertex="1" parent="D8TExDitwnJTRp-4ELaG-177">
          <mxGeometry y="180" width="220" height="30" as="geometry" />
        </mxCell>
        <mxCell id="D8TExDitwnJTRp-4ELaG-231" style="shape=partialRectangle;connectable=0;fillColor=none;top=0;left=0;bottom=0;right=0;editable=1;overflow=hidden;" vertex="1" parent="D8TExDitwnJTRp-4ELaG-230">
          <mxGeometry width="30" height="30" as="geometry" />
        </mxCell>
        <mxCell id="D8TExDitwnJTRp-4ELaG-232" value="IS_CANCEL" style="shape=partialRectangle;connectable=0;fillColor=none;top=0;left=0;bottom=0;right=0;align=left;spacingLeft=6;overflow=hidden;" vertex="1" parent="D8TExDitwnJTRp-4ELaG-230">
          <mxGeometry x="30" width="190" height="30" as="geometry" />
        </mxCell>
        <mxCell id="D8TExDitwnJTRp-4ELaG-233" style="shape=partialRectangle;collapsible=0;dropTarget=0;pointerEvents=0;fillColor=none;top=0;left=0;bottom=0;right=0;points=[[0,0.5],[1,0.5]];portConstraint=eastwest;" vertex="1" parent="D8TExDitwnJTRp-4ELaG-177">
          <mxGeometry y="210" width="220" height="30" as="geometry" />
        </mxCell>
        <mxCell id="D8TExDitwnJTRp-4ELaG-234" style="shape=partialRectangle;connectable=0;fillColor=none;top=0;left=0;bottom=0;right=0;editable=1;overflow=hidden;" vertex="1" parent="D8TExDitwnJTRp-4ELaG-233">
          <mxGeometry width="30" height="30" as="geometry" />
        </mxCell>
        <mxCell id="D8TExDitwnJTRp-4ELaG-235" value="IS_EFFECT" style="shape=partialRectangle;connectable=0;fillColor=none;top=0;left=0;bottom=0;right=0;align=left;spacingLeft=6;overflow=hidden;" vertex="1" parent="D8TExDitwnJTRp-4ELaG-233">
          <mxGeometry x="30" width="190" height="30" as="geometry" />
        </mxCell>
        <mxCell id="D8TExDitwnJTRp-4ELaG-370" style="shape=partialRectangle;collapsible=0;dropTarget=0;pointerEvents=0;fillColor=none;top=0;left=0;bottom=0;right=0;points=[[0,0.5],[1,0.5]];portConstraint=eastwest;" vertex="1" parent="D8TExDitwnJTRp-4ELaG-177">
          <mxGeometry y="240" width="220" height="30" as="geometry" />
        </mxCell>
        <mxCell id="D8TExDitwnJTRp-4ELaG-371" style="shape=partialRectangle;connectable=0;fillColor=none;top=0;left=0;bottom=0;right=0;editable=1;overflow=hidden;" vertex="1" parent="D8TExDitwnJTRp-4ELaG-370">
          <mxGeometry width="30" height="30" as="geometry" />
        </mxCell>
        <mxCell id="D8TExDitwnJTRp-4ELaG-372" value="NOT_OR_INS" style="shape=partialRectangle;connectable=0;fillColor=none;top=0;left=0;bottom=0;right=0;align=left;spacingLeft=6;overflow=hidden;" vertex="1" parent="D8TExDitwnJTRp-4ELaG-370">
          <mxGeometry x="30" width="190" height="30" as="geometry" />
        </mxCell>
        <mxCell id="D8TExDitwnJTRp-4ELaG-364" style="edgeStyle=orthogonalEdgeStyle;rounded=0;orthogonalLoop=1;jettySize=auto;html=1;exitX=1;exitY=0.5;exitDx=0;exitDy=0;entryX=0;entryY=0.5;entryDx=0;entryDy=0;" edge="1" parent="1" source="D8TExDitwnJTRp-4ELaG-61" target="D8TExDitwnJTRp-4ELaG-236">
          <mxGeometry relative="1" as="geometry">
            <Array as="points">
              <mxPoint x="1335" y="375" />
              <mxPoint x="1335" y="1010" />
              <mxPoint x="720" y="1010" />
              <mxPoint x="720" y="1115" />
            </Array>
          </mxGeometry>
        </mxCell>
        <mxCell id="D8TExDitwnJTRp-4ELaG-366" style="edgeStyle=orthogonalEdgeStyle;rounded=0;orthogonalLoop=1;jettySize=auto;html=1;exitX=1;exitY=0.5;exitDx=0;exitDy=0;entryX=0;entryY=0.5;entryDx=0;entryDy=0;" edge="1" parent="1" source="D8TExDitwnJTRp-4ELaG-61" target="D8TExDitwnJTRp-4ELaG-187">
          <mxGeometry relative="1" as="geometry">
            <Array as="points">
              <mxPoint x="1335" y="375" />
              <mxPoint x="1335" y="1010" />
              <mxPoint x="1010" y="1010" />
              <mxPoint x="1010" y="1115" />
            </Array>
          </mxGeometry>
        </mxCell>
      </root>
    </mxGraphModel>
  </diagram>
</mxfile>
